<?xml version="1.0" standalone="no"?>
<!DOCTYPE svg PUBLIC "-//W3C//DTD SVG 1.1//EN" "http://www.w3.org/Graphics/SVG/1.1/DTD/svg11.dtd" >
<svg xmlns="http://www.w3.org/2000/svg">
<metadata></metadata>
<defs>
<font id="myriad_set_probold" horiz-adv-x="1220" >
<font-face units-per-em="2048" ascent="1638" descent="-410" />
<missing-glyph horiz-adv-x="483" />
<glyph unicode="&#xfb01;" horiz-adv-x="1153" d="M-23 788v248h136v11q0 104 33.5 190t100 147.5t162 96.5t214.5 35q186 0 319 -91l-80 -251q-137 82 -244 81q-184 0 -184 -217v-2h580v-1077h-324v829h-254v-829h-323v829h-136z" />
<glyph unicode="&#xfb02;" horiz-adv-x="1153" d="M-23 788v248h136v2q0 104 34.5 192.5t102 151t167 98.5t224.5 36q203 0 373 -91v-1466h-324v1298q-10 6 -84 7q-172 0 -172 -222v-6h213v-248h-211v-829h-323v829h-136z" />
<glyph unicode="&#xfb03;" d="M98 0v1434h1024v-1434h-1024zM147 49h926v1335h-926v-1335z" />
<glyph unicode="&#xfb04;" d="M98 0v1434h1024v-1434h-1024zM147 49h926v1335h-926v-1335z" />
<glyph unicode="&#xd;" horiz-adv-x="483" />
<glyph horiz-adv-x="0" />
<glyph horiz-adv-x="0" />
<glyph unicode=" "  horiz-adv-x="483" />
<glyph unicode="&#x09;" horiz-adv-x="483" />
<glyph unicode="&#xa0;" horiz-adv-x="483" />
<glyph unicode="!" horiz-adv-x="544" d="M55 123q0 76 52.5 132t138.5 56q88 0 140 -56t52 -132q0 -78 -53 -132t-141 -54t-138.5 56t-50.5 130zM74 1421h344l-37 -1048h-270z" />
<glyph unicode="&#x22;" d="M98 0v1434h1024v-1434h-1024zM147 49h926v1335h-926v-1335z" />
<glyph unicode="#" d="M98 0v1434h1024v-1434h-1024zM147 49h926v1335h-926v-1335z" />
<glyph unicode="$" d="M98 0v1434h1024v-1434h-1024zM147 49h926v1335h-926v-1335z" />
<glyph unicode="%" d="M98 0v1434h1024v-1434h-1024zM147 49h926v1335h-926v-1335z" />
<glyph unicode="&#x26;" d="M98 0v1434h1024v-1434h-1024zM147 49h926v1335h-926v-1335z" />
<glyph unicode="'" d="M98 0v1434h1024v-1434h-1024zM147 49h926v1335h-926v-1335z" />
<glyph unicode="(" d="M98 0v1434h1024v-1434h-1024zM147 49h926v1335h-926v-1335z" />
<glyph unicode=")" d="M98 0v1434h1024v-1434h-1024zM147 49h926v1335h-926v-1335z" />
<glyph unicode="*" d="M98 0v1434h1024v-1434h-1024zM147 49h926v1335h-926v-1335z" />
<glyph unicode="+" d="M98 0v1434h1024v-1434h-1024zM147 49h926v1335h-926v-1335z" />
<glyph unicode="," horiz-adv-x="524" d="M-45 -297q109 303 156 602l350 31q-117 -387 -252 -610z" />
<glyph unicode="-" horiz-adv-x="684" d="M10 430v238h613v-238h-613z" />
<glyph unicode="." horiz-adv-x="507" d="M53 125q0 76 53.5 133t139.5 57q88 0 140 -56t52 -134q0 -76 -52 -132t-142 -56q-88 0 -139.5 57t-51.5 131z" />
<glyph unicode="/" horiz-adv-x="753" d="M-59 -123l551 1567h266l-551 -1567h-266z" />
<glyph unicode="0" horiz-adv-x="1114" d="M18 662q0 283 103 475q137 258 420 258q281 0 409 -256q92 -182 92 -463q0 -293 -96 -479q-131 -260 -424 -260q-276 0 -407 262q-96 186 -97 463zM342 659q0 -178 37 -303q51 -166 151 -166q187 1 187 480q0 471 -187 471q-98 0 -151 -174q-37 -129 -37 -308z" />
<glyph unicode="1" horiz-adv-x="1114" d="M137 1192l352 180h252v-1413h-315v1128h61l-286 -149z" />
<glyph unicode="2" horiz-adv-x="1114" d="M37 -41v191l162 155q256 248 344 365q109 143 108 264q2 197 -190 196q-119 0 -301 -141l-101 242q199 164 445 164q229 0 360 -138q113 -119 113 -299q0 -178 -123 -356q-94 -141 -307 -340l-96 -88v51h555v-266h-969z" />
<glyph unicode="3" horiz-adv-x="1114" d="M25 53l77 252q182 -109 326 -108q115 0 176 61q51 49 49 129q0 100 -80 154q-70 49 -184 49h-156v244h154q88 0 152 38q72 45 71 123q0 66 -41 103t-125 37q-123 0 -292 -117l-80 250q180 127 417 127q213 0 338 -113q111 -100 111 -250q0 -250 -242 -340v56 q102 -18 195.5 -121t93.5 -248q0 -188 -143 -311q-152 -131 -406 -131q-238 0 -411 116z" />
<glyph unicode="4" horiz-adv-x="1114" d="M-14 307v197l573 868h336v-813h174v-252h-174v-348h-311v348h-598zM338 559h246v350q0 99 4 197l76 -25q-16 -37 -99 -182z" />
<glyph unicode="5" horiz-adv-x="1114" d="M27 39l73 256q174 -100 316 -100q100 0 171.5 59t71.5 164q-2 231 -323 231q-84 0 -236 -20l99 743h753v-266h-506l-28 -205q-16 -2 37 -2q193 0 336 -88q196 -127 196 -375q0 -211 -157.5 -355t-407.5 -144q-223 0 -395 102z" />
<glyph unicode="6" horiz-adv-x="1114" d="M14 547q0 391 240 627q182 178 479 210q80 8 185 9v-263q-106 4 -173 -6q-174 -23 -280 -135q-96 -100 -115 -205h-78q111 137 330 138q199 0 324 -131t125 -340q0 -207 -133 -355q-141 -160 -371 -159q-250 0 -391.5 172t-141.5 438zM338 492q2 -137 57 -224 q55 -82 154 -82q76 0 123 68q51 69 51 184t-53.5 176.5t-137.5 61.5q-123 0 -182 -119q-14 -29 -12 -65z" />
<glyph unicode="7" horiz-adv-x="1114" d="M57 1106v266h963v-190l-576 -1223h-340l558 1147h-605z" />
<glyph unicode="8" horiz-adv-x="1114" d="M20 340q0 264 252 377v-41q-205 98 -204 317q0 184 149 297q133 104 328 105q180 0 309 -92q139 -104 139 -281q0 -225 -207 -328v41q256 -102 256 -364q0 -203 -159 -326q-145 -109 -357 -108q-201 0 -342 100q-164 113 -164 303zM350 367q0 -88 53.5 -139.5 t131.5 -51.5t130 46t52 128q0 164 -207 225q-61 -20 -109 -69q-51 -59 -51 -139zM385 1006q0 -131 172 -183q127 43 127 176q0 76 -41 117t-106 41q-66 0 -109 -39t-43 -112z" />
<glyph unicode="9" horiz-adv-x="1114" d="M25 881q0 207 137 354q150 160 377 160q242 0 379 -181q124 -162 124 -426q0 -342 -168 -563q-182 -246 -524 -278q-104 -10 -213 -6v266q100 -12 185 -2q139 14 237 98q123 109 148 252h81q-109 -125 -319 -125q-199 0 -321.5 128t-122.5 323zM346 893q0 -102 50 -160.5 t128 -58.5q125 0 181 96q10 18 10 57q0 141 -47 228q-49 92 -144 92q-78 0 -125 -70q-53 -72 -53 -184z" />
<glyph unicode=":" d="M98 0v1434h1024v-1434h-1024zM147 49h926v1335h-926v-1335z" />
<glyph unicode=";" d="M98 0v1434h1024v-1434h-1024zM147 49h926v1335h-926v-1335z" />
<glyph unicode="&#x3c;" d="M98 0v1434h1024v-1434h-1024zM147 49h926v1335h-926v-1335z" />
<glyph unicode="=" horiz-adv-x="1271" d="M31 233v226h1159v-226h-1159zM31 641v225h1159v-225h-1159z" />
<glyph unicode="&#x3e;" d="M98 0v1434h1024v-1434h-1024zM147 49h926v1335h-926v-1335z" />
<glyph unicode="?" horiz-adv-x="894" d="M43 1337q160 109 360 109q199 0 310 -109q98 -96 98 -239q0 -104 -57 -207q-35 -61 -125 -168q-109 -127 -103 -264l4 -90h-294l-11 88q-14 193 131 372q127 152 127 238q0 115 -127 117q-98 0 -227 -97zM182 123q0 78 53.5 133t139.5 55q88 0 139 -55t51 -133t-52 -132 t-140 -54q-86 0 -138.5 56t-52.5 130z" />
<glyph unicode="@" horiz-adv-x="1562" d="M41 616q0 338 213 576q227 252 584 252q289 0 467 -178.5t178 -448.5q0 -238 -118 -386t-302 -148q-209 0 -209 172h78q-104 -172 -311 -172q-121 0 -196 84t-75 215q0 209 142 362q156 164 389 164q147 0 278 -66l-72 -401q-10 -59 -10 -100q0 -66 19 -66q49 -2 96 72 q63 98 63 258q0 207 -116 330q-115 125 -320 125q-225 0 -381 -166q-168 -178 -168 -465q0 -238 138 -377q125 -129 329 -129q160 0 334 94l62 -180q-201 -102 -424 -103q-283 0 -471 187q-197 193 -197 495zM608 596q0 -104 72 -104q47 0 100.5 66.5t69.5 154.5l35 190 q6 -2 -31 -2q-96 0 -171 -89t-75 -216z" />
<glyph unicode="A" horiz-adv-x="1325" d="M-20 -41l471 1462h352l473 -1462h-340l-129 406h-369l-123 -406h-335zM502 616h239l-100 310q-18 57 -61 229h79q-12 -55 -59 -227z" />
<glyph unicode="B" horiz-adv-x="1187" d="M96 -31v1424q184 39 396 39q272 0 418.5 -103.5t146.5 -284.5q0 -109 -68.5 -200.5t-161.5 -124.5v51q96 -25 183 -117q96 -108 96 -258q0 -184 -137 -305q-160 -143 -531 -143q-164 0 -342 22zM418 197q-4 0 84 0q123 0 190 45q80 50 80 159q0 104 -78 156 q-72 47 -196 47h-80v-407zM418 848h86q109 0 168 47t59 127q0 162 -219 162q-86 0 -94 -2v-334z" />
<glyph unicode="C" horiz-adv-x="1226" d="M20 676q0 346 218 559q213 207 553 207q222 0 376 -82l-71 -260q-164 76 -297 76q-199 0 -314 -119q-129 -131 -129 -371q0 -231 116 -355t321 -124q147 0 309 76l59 -263q-164 -79 -401 -79h-6q-336 0 -531 194q-203 203 -203 541z" />
<glyph unicode="D" horiz-adv-x="1406" d="M96 -31v1426q223 37 432 37q385 0 584 -170q221 -191 221 -539q0 -389 -237 -590q-221 -186 -625 -186q-193 0 -375 22zM420 205q-6 0 98 0q229 0 354 128t125 384q0 227 -114.5 343t-335.5 116q-98 0 -127 -7v-964z" />
<glyph unicode="E" horiz-adv-x="1067" d="M96 -41v1462h869v-264h-545v-307h514v-264h-514v-363h573v-264h-897z" />
<glyph unicode="F" horiz-adv-x="1056" d="M96 -41v1462h865v-264h-541v-334h502v-262h-502v-602h-324z" />
<glyph unicode="G" horiz-adv-x="1370" d="M20 678q0 338 220.5 548t578.5 210q229 0 404 -84l-72 -265q-174 80 -336 80q-207 0 -330 -118q-129 -127 -129 -359q0 -231 125 -362q113 -119 312 -119q125 0 149 10v311h-252v256h567v-751q-242 -90 -475 -90q-356 0 -557 194q-205 199 -205 539z" />
<glyph unicode="H" horiz-adv-x="1386" d="M96 -41v1462h324v-563h495v563h324v-1462h-324v623h-495v-623h-324z" />
<glyph unicode="I" horiz-adv-x="567" d="M96 -41v1462h324v-1462h-324z" />
<glyph unicode="J" horiz-adv-x="821" d="M-51 -12l41 260q123 -43 190 -43q92 0 131 47q53 63 54 227v942h323v-952q0 -532 -485 -532q-129 0 -254 51z" />
<glyph unicode="K" horiz-adv-x="1224" d="M96 -41v1462h322v-647h-76q39 61 90 129l389 518h396l-510 -630l532 -832h-375l-379 610l-67 -80v-530h-322z" />
<glyph unicode="L" horiz-adv-x="1026" d="M96 -41v1462h324v-1194h563v-268h-887z" />
<glyph unicode="M" horiz-adv-x="1699" d="M59 -41l97 1462h372l209 -628q74 -223 123 -445h-78q57 231 131 445l217 628h373l84 -1462h-317l-31 616q-18 357 -18 514v29h86q-57 -213 -154 -491l-225 -656h-246l-207 645q-88 281 -137 502h88q-8 -272 -23 -553l-34 -606h-310z" />
<glyph unicode="N" horiz-adv-x="1394" d="M96 -41v1462h330l391 -653q137 -227 219 -416l-75 -39q-20 211 -21 553v555h309v-1462h-311l-395 666q-154 262 -230 432l78 26q12 -205 12 -559v-565h-307z" />
<glyph unicode="O" horiz-adv-x="1447" d="M20 680q0 315 173 528q193 236 514 236q317 0 503 -227q166 -203 166 -512q0 -326 -168 -535q-186 -233 -520 -233q-315 0 -502 229q-166 205 -166 514zM354 686q0 -197 86 -336q93 -153 254 -153h2q166 0 258 155q84 139 84 344q0 195 -86 334q-94 154 -254 154 q-166 0 -258 -156q-86 -139 -86 -342z" />
<glyph unicode="P" horiz-adv-x="1157" d="M96 -41v1436q203 37 412 37q285 0 432 -125q141 -123 141 -328t-123 -330q-162 -166 -464 -166q-77 0 -77 -2h1v-522h-322zM418 739h78q125 0 194.5 59.5t69.5 170.5q0 104 -62.5 156.5t-181.5 52.5q-86 0 -98 -2v-437z" />
<glyph unicode="Q" horiz-adv-x="1460" d="M20 678q0 336 189.5 551t501.5 215q307 0 493 -219q172 -203 172 -520q0 -256 -106 -437q-104 -178 -256 -235v47q139 -39 385 -84l-92 -262q-303 82 -578 186q-43 14 -67 17q-276 14 -453 204q-188 203 -189 537zM356 684q0 -197 86 -336q93 -151 254 -151h2 q166 0 258 155q84 139 84 344q0 197 -86 336q-92 152 -252 152q-166 0 -258 -156q-88 -141 -88 -344z" />
<glyph unicode="R" horiz-adv-x="1200" d="M96 -41v1436q197 37 410 37q303 0 442 -121q133 -113 133 -303q0 -139 -84 -244q-76 -98 -168 -131v49q135 -51 195 -293q41 -172 57 -237q29 -105 76 -193h-340q-49 92 -108 363q-27 129 -73 173t-132 44h-86v-580h-322zM418 784h104q109 0 172.5 54.5t63.5 146.5 q0 195 -232 197q-98 0 -108 -2v-396z" />
<glyph unicode="S" horiz-adv-x="1073" d="M25 49l75 270q193 -114 350 -114h3q104 0 158.5 44t54.5 122q0 70 -48.5 118t-168.5 93q-393 145 -394 432q0 186 142.5 307t375.5 121q203 0 371 -88l-80 -267q-164 90 -297 91q-94 0 -143 -43q-43 -39 -43 -99q0 -66 49 -106q49 -45 186 -99q190 -76 282.5 -182 t92.5 -262q0 -190 -135 -313q-152 -135 -416 -135q-242 0 -415 110z" />
<glyph unicode="T" horiz-adv-x="1083" d="M-41 1153v268h1114v-268h-395v-1194h-326v1194h-393z" />
<glyph unicode="U" horiz-adv-x="1374" d="M94 575v846h324v-858q0 -190 74 -287q58 -77 162 -77h3q248 0 248 364v858h324v-841q0 -319 -158 -484q-151 -159 -419 -159h-3q-555 0 -555 638z" />
<glyph unicode="V" horiz-adv-x="1243" d="M-53 1421h348l201 -680q100 -326 131 -475h-82q37 162 137 475l217 680h342l-500 -1462h-327z" />
<glyph unicode="W" horiz-adv-x="1798" d="M-31 1421h340l150 -688q49 -229 86 -444h-86q20 131 98 448l168 684h315l154 -692q61 -268 84 -436h-88q29 174 84 409l8 37l164 682h332l-396 -1462h-317l-160 707q-59 260 -78 407h88q-23 -143 -90 -409l-182 -705h-319z" />
<glyph unicode="X" horiz-adv-x="1251" d="M-37 -41l430 741l-413 721h364l174 -323q66 -127 105 -207h-68q39 84 102 207l174 323h365l-424 -714l438 -748h-368l-170 313q-51 90 -129 238h65q-2 -10 -121 -238l-157 -313h-367z" />
<glyph unicode="Y" horiz-adv-x="1206" d="M-55 1421h364l185 -389q80 -168 114 -254h-69q31 84 112 254l187 389h364l-479 -846v-616h-324v610z" />
<glyph unicode="Z" horiz-adv-x="1173" d="M4 -41v176l678 1020h-616v266h1036v-184l-670 -1012h680v-266h-1108z" />
<glyph unicode="[" d="M98 0v1434h1024v-1434h-1024zM147 49h926v1335h-926v-1335z" />
<glyph unicode="\" horiz-adv-x="763" d="M-59 1444h268l547 -1567h-267z" />
<glyph unicode="]" d="M98 0v1434h1024v-1434h-1024zM147 49h926v1335h-926v-1335z" />
<glyph unicode="^" d="M98 0v1434h1024v-1434h-1024zM147 49h926v1335h-926v-1335z" />
<glyph unicode="_" d="M98 0v1434h1024v-1434h-1024zM147 49h926v1335h-926v-1335z" />
<glyph unicode="`" d="M98 0v1434h1024v-1434h-1024zM147 49h926v1335h-926v-1335z" />
<glyph unicode="a" horiz-adv-x="1060" d="M16 270q0 204 170 310q167 105 403 104h9v-22q0 155 -154 155h-2q-129 0 -290 -104l-72 233q180 111 399 111q442 0 443 -453v-366q0 -148 20 -279h-301l-16 115h67q-102 -137 -319 -137q-166 0 -269 106q-88 92 -88 227zM338 295q0 -63 28.5 -89t71.5 -26q53 0 102.5 36 t59.5 93q4 15 4 33v113h-18q-248 0 -248 -160z" />
<glyph unicode="b" horiz-adv-x="1214" d="M78 -41q10 164 10 309v1225h324v-602h-80q98 166 350 166q207 0 333 -152.5t126 -392.5q0 -264 -150 -426q-138 -149 -339 -149h-3q-246 0 -346 176h76l-12 -154h-289zM412 403q0 -90 55 -149t133 -59q96 0 154.5 78.5t58.5 230.5q0 135 -59 217q-55 80 -150 80 q-61 0 -113.5 -43t-70.5 -119q-8 -31 -8 -61v-175z" />
<glyph unicode="c" horiz-adv-x="956" d="M23 487q0 246 158.5 408t428.5 162q154 0 297 -68l-65 -254q-133 66 -228 66q-119 0 -191.5 -83t-72.5 -220q0 -143 76 -222t188 -79q90 0 242 63l45 -250q-148 -71 -325 -71h-5q-252 0 -400 151.5t-148 396.5z" />
<glyph unicode="d" horiz-adv-x="1208" d="M23 485q0 254 139 414q139 158 348 158q233 0 313 -135h-80v571h324v-1225q0 -145 10 -309h-299l-10 160h78q-94 -182 -354 -182q-207 0 -338 155.5t-131 392.5zM348 494q0 -137 62 -220q54 -77 145 -77h2q80 0 131 63q55 66 55 160v166q0 39 -4 61q-16 70 -65 113 t-113 43q-94 0 -153.5 -83t-59.5 -226z" />
<glyph unicode="e" horiz-adv-x="1077" d="M23 483q0 238 131 398q145 178 391 178t370 -182q95 -135 95 -332q0 -61 -17 -142h-653q2 -90 80 -155q68 -57 180 -58q135 0 307 66l54 -236q-184 -79 -387 -79h-5q-256 0 -401 149.5t-145 392.5zM342 643h354q2 49 -37 111q-42 69 -129 69h-2q-80 0 -133 -69 q-49 -63 -53 -111z" />
<glyph unicode="f" horiz-adv-x="679" d="M-23 788v248h136v4q0 242 129 367q115 109 288 109q100 0 211 -43l-32 -261q-104 43 -152 43q-123 0 -123 -208v-11h223v-248h-221v-829h-323v829h-136z" />
<glyph unicode="g" horiz-adv-x="1196" d="M23 492q0 252 145 411q139 154 346 154q236 0 324 -158h-78l8 137h297q-10 -164 -10 -323v-570q0 -336 -156 -477q-147 -133 -407 -133q-223 0 -392 102l78 256q172 -104 314 -104q242 0 241 274v56h80q-92 -152 -326 -152q-207 0 -335.5 151.5t-128.5 375.5zM348 500 q0 -133 60 -211q55 -76 147 -76q53 0 99 34t67 99q10 31 10 80v176q0 88 -50 145.5t-126 57.5q-84 0 -145.5 -79t-61.5 -226z" />
<glyph unicode="h" horiz-adv-x="1189" d="M88 -41v1534h324v-598h-78q104 162 330 162q162 0 264 -103q127 -127 127 -362v-633h-324v608q0 227 -149 228q-115 0 -162 -125q-8 -27 -8 -70v-641h-324z" />
<glyph unicode="i" horiz-adv-x="550" d="M63 1292q0 72 53.5 122t133.5 50t133 -50t53 -122q0 -74 -53 -124t-137 -50q-80 0 -131.5 51.5t-51.5 122.5zM88 -41v1077h324v-1077h-324z" />
<glyph unicode="j" horiz-adv-x="573" d="M-143 -223q160 12 202 59q55 61 56 330v870h323v-940q0 -307 -137 -440q-127 -129 -414 -131zM90 1292q0 72 53.5 122t135.5 50t133 -50t51 -122q0 -74 -53.5 -124t-135.5 -50t-133 51.5t-51 122.5z" />
<glyph unicode="k" horiz-adv-x="1081" d="M88 -41v1534h324v-901h-78q27 45 67 94l271 350h391l-406 -452l447 -625h-389l-275 416l-28 -35v-381h-324z" />
<glyph unicode="l" horiz-adv-x="550" d="M88 -41v1534h324v-1534h-324z" />
<glyph unicode="m" horiz-adv-x="1748" d="M78 1036h293l10 -149h-76q102 170 336 170q240 0 311 -187h-65q39 61 117 115q102 72 235 72q158 0 260 -107q117 -123 117 -360v-631h-320v600q0 236 -137 236q-61 0 -104 -54.5t-43 -134.5v-647h-320v629q0 102 -35.5 154.5t-95.5 52.5q-61 0 -107 -59.5t-46 -141.5 v-635h-320v752q0 131 -10 325z" />
<glyph unicode="n" horiz-adv-x="1189" d="M78 1036h297l10 -153h-76q31 57 117 110q104 63 231 64q164 0 271 -105q127 -123 127 -356v-637h-324v612q0 223 -149 224q-72 0 -121 -58.5t-49 -144.5v-633h-324v752q0 131 -10 325z" />
<glyph unicode="o" horiz-adv-x="1171" d="M23 489q0 244 146 406t400 162q244 0 394 -162q137 -153 137 -389q0 -242 -142 -402q-151 -167 -402 -167h-3q-246 0 -388 159.5t-142 392.5zM350 496q0 -129 56 -220q57 -94 153 -94q94 0 152 97q57 92 57 221t-55 219q-55 94 -152 94q-100 0 -155 -94q-55 -90 -56 -223 z" />
<glyph unicode="p" horiz-adv-x="1214" d="M78 1036h295l12 -157h-74q111 178 367 178q203 0 333 -153.5t130 -393.5q0 -266 -148 -426q-139 -147 -346 -147q-229 0 -315 141h80v-524h-324v1114q0 160 -10 368zM412 410q0 -96 54 -156.5t134 -60.5q96 0 154.5 81t58.5 228q0 135 -59 219q-55 78 -148 78 q-61 0 -114.5 -43t-69.5 -121q-10 -37 -10 -60v-165z" />
<glyph unicode="q" horiz-adv-x="1206" d="M23 481q0 270 151 430q139 145 338 146q236 0 322 -158h-78l8 137h313q-10 -211 -10 -325v-1157h-324v546h80q-95 -163 -337 -163h-3q-199 0 -329.5 153.5t-130.5 390.5zM350 494q0 -139 58 -220q54 -79 147 -79h2q57 0 105.5 36.5t70.5 110.5q10 33 10 68v180 q0 90 -52 150.5t-130 60.5q-94 0 -152.5 -82t-58.5 -225z" />
<glyph unicode="r" horiz-adv-x="745" d="M80 1036h295l8 -190h-82q29 78 115 147q90 63 194 64q35 0 107 -13v-294q-90 16 -121 16q-88 0 -135 -68q-49 -68 -49 -176v-563h-324l2 723q0 172 -10 354z" />
<glyph unicode="s" horiz-adv-x="874" d="M16 31l72 252q164 -100 277 -101q118 0 118 83q0 42 -26.5 68.5t-110.5 57.5q-297 109 -297 324q0 145 112.5 243.5t297.5 98.5q164 0 309 -84l-74 -244q-143 86 -233 86q-47 0 -71.5 -20.5t-24.5 -55.5t26 -55q29 -27 119 -59q289 -109 289 -338q0 -156 -118 -252 t-319 -96q-186 0 -346 92z" />
<glyph unicode="t" horiz-adv-x="745" d="M-16 788v248h145v170l320 97v-267h243v-248h-243v-442q0 -143 77 -143q51 0 148 24l8 -247q-106 -41 -223 -41q-156 0 -243 94t-87 295v460h-145z" />
<glyph unicode="u" horiz-adv-x="1183" d="M82 410v626h324v-590q0 -245 144 -245h1q111 0 156 114q12 31 12 72v649h323v-749q1 -142 11 -328h-295l-13 152h76q-104 -174 -348 -174q-172 0 -276 108q-115 125 -115 365z" />
<glyph unicode="v" horiz-adv-x="1071" d="M-43 1036h344l180 -557q43 -133 66 -221h-80q18 76 65 221l179 557h340l-410 -1077h-291z" />
<glyph unicode="w" horiz-adv-x="1566" d="M-35 1036h336l121 -506q41 -170 61 -286h-84q16 92 76 284l150 508h262l143 -497q51 -170 74 -295h-82q16 119 61 295l131 497h324l-338 -1077h-282l-138 465q-51 162 -73 289h84q-23 -131 -76 -291l-148 -463h-284z" />
<glyph unicode="x" horiz-adv-x="1054" d="M-72 -41l369 549l-356 528h362l139 -221q39 -59 80 -135h-61q33 63 78 137l131 219h360l-358 -520l362 -557h-364l-142 227q-47 76 -84 148h64q-18 -35 -82 -141l-137 -234h-361z" />
<glyph unicode="y" horiz-adv-x="1050" d="M-53 1036h352l199 -585q27 -76 51 -166h-78q10 33 47 166l176 585h344l-270 -741q-184 -500 -348 -647q-129 -115 -322 -146l-73 260q109 31 174 80q80 61 127 160q12 25 12 31q0 8 -10 35z" />
<glyph unicode="z" horiz-adv-x="940" d="M-12 -41v180l405 533q37 51 127 153v-49h-493v260h864v-188l-397 -524q-66 -86 -127 -154v49h534v-260h-913z" />
<glyph unicode="{" d="M98 0v1434h1024v-1434h-1024zM147 49h926v1335h-926v-1335z" />
<glyph unicode="|" d="M98 0v1434h1024v-1434h-1024zM147 49h926v1335h-926v-1335z" />
<glyph unicode="}" d="M98 0v1434h1024v-1434h-1024zM147 49h926v1335h-926v-1335z" />
<glyph unicode="~" d="M98 0v1434h1024v-1434h-1024zM147 49h926v1335h-926v-1335z" />
<glyph unicode="&#xa1;" d="M98 0v1434h1024v-1434h-1024zM147 49h926v1335h-926v-1335z" />
<glyph unicode="&#xa2;" d="M98 0v1434h1024v-1434h-1024zM147 49h926v1335h-926v-1335z" />
<glyph unicode="&#xa3;" d="M98 0v1434h1024v-1434h-1024zM147 49h926v1335h-926v-1335z" />
<glyph unicode="&#xa4;" d="M98 0v1434h1024v-1434h-1024zM147 49h926v1335h-926v-1335z" />
<glyph unicode="&#xa5;" d="M98 0v1434h1024v-1434h-1024zM147 49h926v1335h-926v-1335z" />
<glyph unicode="&#xa6;" d="M98 0v1434h1024v-1434h-1024zM147 49h926v1335h-926v-1335z" />
<glyph unicode="&#xa7;" d="M98 0v1434h1024v-1434h-1024zM147 49h926v1335h-926v-1335z" />
<glyph unicode="&#xa8;" d="M98 0v1434h1024v-1434h-1024zM147 49h926v1335h-926v-1335z" />
<glyph unicode="&#xa9;" d="M98 0v1434h1024v-1434h-1024zM147 49h926v1335h-926v-1335z" />
<glyph unicode="&#xaa;" d="M98 0v1434h1024v-1434h-1024zM147 49h926v1335h-926v-1335z" />
<glyph unicode="&#xab;" d="M98 0v1434h1024v-1434h-1024zM147 49h926v1335h-926v-1335z" />
<glyph unicode="&#xac;" d="M98 0v1434h1024v-1434h-1024zM147 49h926v1335h-926v-1335z" />
<glyph unicode="&#xad;" d="M98 0v1434h1024v-1434h-1024zM147 49h926v1335h-926v-1335z" />
<glyph unicode="&#xae;" d="M98 0v1434h1024v-1434h-1024zM147 49h926v1335h-926v-1335z" />
<glyph unicode="&#xaf;" d="M98 0v1434h1024v-1434h-1024zM147 49h926v1335h-926v-1335z" />
<glyph unicode="&#xb0;" d="M98 0v1434h1024v-1434h-1024zM147 49h926v1335h-926v-1335z" />
<glyph unicode="&#xb1;" d="M98 0v1434h1024v-1434h-1024zM147 49h926v1335h-926v-1335z" />
<glyph unicode="&#xb2;" d="M98 0v1434h1024v-1434h-1024zM147 49h926v1335h-926v-1335z" />
<glyph unicode="&#xb3;" d="M98 0v1434h1024v-1434h-1024zM147 49h926v1335h-926v-1335z" />
<glyph unicode="&#xb4;" d="M98 0v1434h1024v-1434h-1024zM147 49h926v1335h-926v-1335z" />
<glyph unicode="&#xb5;" d="M98 0v1434h1024v-1434h-1024zM147 49h926v1335h-926v-1335z" />
<glyph unicode="&#xb6;" d="M98 0v1434h1024v-1434h-1024zM147 49h926v1335h-926v-1335z" />
<glyph unicode="&#xb7;" d="M98 0v1434h1024v-1434h-1024zM147 49h926v1335h-926v-1335z" />
<glyph unicode="&#xb8;" d="M98 0v1434h1024v-1434h-1024zM147 49h926v1335h-926v-1335z" />
<glyph unicode="&#xb9;" d="M98 0v1434h1024v-1434h-1024zM147 49h926v1335h-926v-1335z" />
<glyph unicode="&#xba;" d="M98 0v1434h1024v-1434h-1024zM147 49h926v1335h-926v-1335z" />
<glyph unicode="&#xbb;" d="M98 0v1434h1024v-1434h-1024zM147 49h926v1335h-926v-1335z" />
<glyph unicode="&#xbc;" d="M98 0v1434h1024v-1434h-1024zM147 49h926v1335h-926v-1335z" />
<glyph unicode="&#xbd;" d="M98 0v1434h1024v-1434h-1024zM147 49h926v1335h-926v-1335z" />
<glyph unicode="&#xbe;" d="M98 0v1434h1024v-1434h-1024zM147 49h926v1335h-926v-1335z" />
<glyph unicode="&#xbf;" d="M98 0v1434h1024v-1434h-1024zM147 49h926v1335h-926v-1335z" />
<glyph unicode="&#xc0;" d="M98 0v1434h1024v-1434h-1024zM147 49h926v1335h-926v-1335z" />
<glyph unicode="&#xc1;" d="M98 0v1434h1024v-1434h-1024zM147 49h926v1335h-926v-1335z" />
<glyph unicode="&#xc2;" d="M98 0v1434h1024v-1434h-1024zM147 49h926v1335h-926v-1335z" />
<glyph unicode="&#xc3;" d="M98 0v1434h1024v-1434h-1024zM147 49h926v1335h-926v-1335z" />
<glyph unicode="&#xc4;" d="M98 0v1434h1024v-1434h-1024zM147 49h926v1335h-926v-1335z" />
<glyph unicode="&#xc5;" d="M98 0v1434h1024v-1434h-1024zM147 49h926v1335h-926v-1335z" />
<glyph unicode="&#xc6;" d="M98 0v1434h1024v-1434h-1024zM147 49h926v1335h-926v-1335z" />
<glyph unicode="&#xc7;" d="M98 0v1434h1024v-1434h-1024zM147 49h926v1335h-926v-1335z" />
<glyph unicode="&#xc8;" d="M98 0v1434h1024v-1434h-1024zM147 49h926v1335h-926v-1335z" />
<glyph unicode="&#xc9;" d="M98 0v1434h1024v-1434h-1024zM147 49h926v1335h-926v-1335z" />
<glyph unicode="&#xca;" d="M98 0v1434h1024v-1434h-1024zM147 49h926v1335h-926v-1335z" />
<glyph unicode="&#xcb;" d="M98 0v1434h1024v-1434h-1024zM147 49h926v1335h-926v-1335z" />
<glyph unicode="&#xcc;" d="M98 0v1434h1024v-1434h-1024zM147 49h926v1335h-926v-1335z" />
<glyph unicode="&#xcd;" d="M98 0v1434h1024v-1434h-1024zM147 49h926v1335h-926v-1335z" />
<glyph unicode="&#xce;" d="M98 0v1434h1024v-1434h-1024zM147 49h926v1335h-926v-1335z" />
<glyph unicode="&#xcf;" d="M98 0v1434h1024v-1434h-1024zM147 49h926v1335h-926v-1335z" />
<glyph unicode="&#xd0;" d="M98 0v1434h1024v-1434h-1024zM147 49h926v1335h-926v-1335z" />
<glyph unicode="&#xd1;" d="M98 0v1434h1024v-1434h-1024zM147 49h926v1335h-926v-1335z" />
<glyph unicode="&#xd2;" d="M98 0v1434h1024v-1434h-1024zM147 49h926v1335h-926v-1335z" />
<glyph unicode="&#xd3;" d="M98 0v1434h1024v-1434h-1024zM147 49h926v1335h-926v-1335z" />
<glyph unicode="&#xd4;" d="M98 0v1434h1024v-1434h-1024zM147 49h926v1335h-926v-1335z" />
<glyph unicode="&#xd5;" d="M98 0v1434h1024v-1434h-1024zM147 49h926v1335h-926v-1335z" />
<glyph unicode="&#xd6;" d="M98 0v1434h1024v-1434h-1024zM147 49h926v1335h-926v-1335z" />
<glyph unicode="&#xd7;" d="M98 0v1434h1024v-1434h-1024zM147 49h926v1335h-926v-1335z" />
<glyph unicode="&#xd8;" d="M98 0v1434h1024v-1434h-1024zM147 49h926v1335h-926v-1335z" />
<glyph unicode="&#xd9;" d="M98 0v1434h1024v-1434h-1024zM147 49h926v1335h-926v-1335z" />
<glyph unicode="&#xda;" d="M98 0v1434h1024v-1434h-1024zM147 49h926v1335h-926v-1335z" />
<glyph unicode="&#xdb;" d="M98 0v1434h1024v-1434h-1024zM147 49h926v1335h-926v-1335z" />
<glyph unicode="&#xdc;" d="M98 0v1434h1024v-1434h-1024zM147 49h926v1335h-926v-1335z" />
<glyph unicode="&#xdd;" d="M98 0v1434h1024v-1434h-1024zM147 49h926v1335h-926v-1335z" />
<glyph unicode="&#xde;" d="M98 0v1434h1024v-1434h-1024zM147 49h926v1335h-926v-1335z" />
<glyph unicode="&#xdf;" d="M98 0v1434h1024v-1434h-1024zM147 49h926v1335h-926v-1335z" />
<glyph unicode="&#xe0;" d="M98 0v1434h1024v-1434h-1024zM147 49h926v1335h-926v-1335z" />
<glyph unicode="&#xe1;" d="M98 0v1434h1024v-1434h-1024zM147 49h926v1335h-926v-1335z" />
<glyph unicode="&#xe2;" d="M98 0v1434h1024v-1434h-1024zM147 49h926v1335h-926v-1335z" />
<glyph unicode="&#xe3;" d="M98 0v1434h1024v-1434h-1024zM147 49h926v1335h-926v-1335z" />
<glyph unicode="&#xe4;" d="M98 0v1434h1024v-1434h-1024zM147 49h926v1335h-926v-1335z" />
<glyph unicode="&#xe5;" d="M98 0v1434h1024v-1434h-1024zM147 49h926v1335h-926v-1335z" />
<glyph unicode="&#xe6;" d="M98 0v1434h1024v-1434h-1024zM147 49h926v1335h-926v-1335z" />
<glyph unicode="&#xe7;" d="M98 0v1434h1024v-1434h-1024zM147 49h926v1335h-926v-1335z" />
<glyph unicode="&#xe8;" d="M98 0v1434h1024v-1434h-1024zM147 49h926v1335h-926v-1335z" />
<glyph unicode="&#xe9;" d="M98 0v1434h1024v-1434h-1024zM147 49h926v1335h-926v-1335z" />
<glyph unicode="&#xea;" d="M98 0v1434h1024v-1434h-1024zM147 49h926v1335h-926v-1335z" />
<glyph unicode="&#xeb;" d="M98 0v1434h1024v-1434h-1024zM147 49h926v1335h-926v-1335z" />
<glyph unicode="&#xec;" d="M98 0v1434h1024v-1434h-1024zM147 49h926v1335h-926v-1335z" />
<glyph unicode="&#xed;" d="M98 0v1434h1024v-1434h-1024zM147 49h926v1335h-926v-1335z" />
<glyph unicode="&#xee;" d="M98 0v1434h1024v-1434h-1024zM147 49h926v1335h-926v-1335z" />
<glyph unicode="&#xef;" d="M98 0v1434h1024v-1434h-1024zM147 49h926v1335h-926v-1335z" />
<glyph unicode="&#xf0;" d="M98 0v1434h1024v-1434h-1024zM147 49h926v1335h-926v-1335z" />
<glyph unicode="&#xf1;" d="M98 0v1434h1024v-1434h-1024zM147 49h926v1335h-926v-1335z" />
<glyph unicode="&#xf2;" d="M98 0v1434h1024v-1434h-1024zM147 49h926v1335h-926v-1335z" />
<glyph unicode="&#xf3;" d="M98 0v1434h1024v-1434h-1024zM147 49h926v1335h-926v-1335z" />
<glyph unicode="&#xf4;" d="M98 0v1434h1024v-1434h-1024zM147 49h926v1335h-926v-1335z" />
<glyph unicode="&#xf5;" d="M98 0v1434h1024v-1434h-1024zM147 49h926v1335h-926v-1335z" />
<glyph unicode="&#xf6;" d="M98 0v1434h1024v-1434h-1024zM147 49h926v1335h-926v-1335z" />
<glyph unicode="&#xf7;" d="M98 0v1434h1024v-1434h-1024zM147 49h926v1335h-926v-1335z" />
<glyph unicode="&#xf8;" d="M98 0v1434h1024v-1434h-1024zM147 49h926v1335h-926v-1335z" />
<glyph unicode="&#xf9;" d="M98 0v1434h1024v-1434h-1024zM147 49h926v1335h-926v-1335z" />
<glyph unicode="&#xfa;" d="M98 0v1434h1024v-1434h-1024zM147 49h926v1335h-926v-1335z" />
<glyph unicode="&#xfb;" d="M98 0v1434h1024v-1434h-1024zM147 49h926v1335h-926v-1335z" />
<glyph unicode="&#xfc;" d="M98 0v1434h1024v-1434h-1024zM147 49h926v1335h-926v-1335z" />
<glyph unicode="&#xfd;" d="M98 0v1434h1024v-1434h-1024zM147 49h926v1335h-926v-1335z" />
<glyph unicode="&#xfe;" d="M98 0v1434h1024v-1434h-1024zM147 49h926v1335h-926v-1335z" />
<glyph unicode="&#xff;" d="M98 0v1434h1024v-1434h-1024zM147 49h926v1335h-926v-1335z" />
<glyph unicode="&#x152;" d="M98 0v1434h1024v-1434h-1024zM147 49h926v1335h-926v-1335z" />
<glyph unicode="&#x153;" d="M98 0v1434h1024v-1434h-1024zM147 49h926v1335h-926v-1335z" />
<glyph unicode="&#x178;" d="M98 0v1434h1024v-1434h-1024zM147 49h926v1335h-926v-1335z" />
<glyph unicode="&#x2c6;" d="M98 0v1434h1024v-1434h-1024zM147 49h926v1335h-926v-1335z" />
<glyph unicode="&#x2dc;" d="M98 0v1434h1024v-1434h-1024zM147 49h926v1335h-926v-1335z" />
<glyph unicode="&#x2000;" horiz-adv-x="758" />
<glyph unicode="&#x2001;" horiz-adv-x="1516" />
<glyph unicode="&#x2002;" horiz-adv-x="758" />
<glyph unicode="&#x2003;" horiz-adv-x="1516" />
<glyph unicode="&#x2004;" horiz-adv-x="505" />
<glyph unicode="&#x2005;" horiz-adv-x="379" />
<glyph unicode="&#x2006;" horiz-adv-x="252" />
<glyph unicode="&#x2007;" horiz-adv-x="252" />
<glyph unicode="&#x2008;" horiz-adv-x="189" />
<glyph unicode="&#x2009;" horiz-adv-x="303" />
<glyph unicode="&#x200a;" horiz-adv-x="84" />
<glyph unicode="&#x2010;" horiz-adv-x="684" d="M10 430v238h613v-238h-613z" />
<glyph unicode="&#x2011;" horiz-adv-x="684" d="M10 430v238h613v-238h-613z" />
<glyph unicode="&#x2012;" horiz-adv-x="684" d="M10 430v238h613v-238h-613z" />
<glyph unicode="&#x2013;" d="M98 0v1434h1024v-1434h-1024zM147 49h926v1335h-926v-1335z" />
<glyph unicode="&#x2014;" d="M98 0v1434h1024v-1434h-1024zM147 49h926v1335h-926v-1335z" />
<glyph unicode="&#x2018;" d="M98 0v1434h1024v-1434h-1024zM147 49h926v1335h-926v-1335z" />
<glyph unicode="&#x2019;" d="M98 0v1434h1024v-1434h-1024zM147 49h926v1335h-926v-1335z" />
<glyph unicode="&#x201a;" d="M98 0v1434h1024v-1434h-1024zM147 49h926v1335h-926v-1335z" />
<glyph unicode="&#x201c;" d="M98 0v1434h1024v-1434h-1024zM147 49h926v1335h-926v-1335z" />
<glyph unicode="&#x201d;" d="M98 0v1434h1024v-1434h-1024zM147 49h926v1335h-926v-1335z" />
<glyph unicode="&#x201e;" d="M98 0v1434h1024v-1434h-1024zM147 49h926v1335h-926v-1335z" />
<glyph unicode="&#x2022;" d="M98 0v1434h1024v-1434h-1024zM147 49h926v1335h-926v-1335z" />
<glyph unicode="&#x2026;" d="M98 0v1434h1024v-1434h-1024zM147 49h926v1335h-926v-1335z" />
<glyph unicode="&#x202f;" horiz-adv-x="303" />
<glyph unicode="&#x2039;" d="M98 0v1434h1024v-1434h-1024zM147 49h926v1335h-926v-1335z" />
<glyph unicode="&#x203a;" d="M98 0v1434h1024v-1434h-1024zM147 49h926v1335h-926v-1335z" />
<glyph unicode="&#x205f;" horiz-adv-x="379" />
<glyph unicode="&#x20ac;" d="M98 0v1434h1024v-1434h-1024zM147 49h926v1335h-926v-1335z" />
<glyph unicode="&#x2122;" d="M98 0v1434h1024v-1434h-1024zM147 49h926v1335h-926v-1335z" />
<glyph unicode="&#x25fc;" horiz-adv-x="1034" d="M0 0v1034h1034v-1034h-1034z" />
</font>
</defs>
</svg>
