<?xml version="1.0" standalone="no"?>
<!DOCTYPE svg PUBLIC "-//W3C//DTD SVG 1.1//EN" "http://www.w3.org/Graphics/SVG/1.1/DTD/svg11.dtd" >
<svg xmlns="http://www.w3.org/2000/svg">
<metadata></metadata>
<defs>
<font id="myriad_set_proultraLtIt" horiz-adv-x="1220" >
<font-face units-per-em="2048" ascent="1638" descent="-410" />
<missing-glyph horiz-adv-x="448" />
<glyph unicode="&#xfb01;" horiz-adv-x="827" d="M160 0l202 956h-126l8 33h127l10 49q45 211 139 324t260 113q55 0 97.5 -12.5t74.5 -32.5l-20 -37q-31 20 -71 32.5t-89 12.5q-143 0 -225 -101.5t-123 -298.5l-10 -49h460l-210 -989h-43l202 956h-417l-203 -956h-43z" />
<glyph unicode="&#xfb02;" horiz-adv-x="827" d="M160 0l202 956h-126l8 33h127l10 49q45 211 139 324t260 113q109 0 187 -54l-303 -1421h-43l297 1401q-27 16 -64 26.5t-82 10.5q-143 0 -225 -101.5t-123 -298.5l-10 -49h229l-8 -33h-229l-203 -956h-43z" />
<glyph unicode="&#xfb03;" d="M98 0v1434h1024v-1434h-1024zM147 49h926v1335h-926v-1335z" />
<glyph unicode="&#xfb04;" d="M98 0v1434h1024v-1434h-1024zM147 49h926v1335h-926v-1335z" />
<glyph horiz-adv-x="0" />
<glyph horiz-adv-x="0" />
<glyph unicode="&#xa;" horiz-adv-x="438" />
<glyph unicode=" "  horiz-adv-x="448" />
<glyph unicode="&#x09;" horiz-adv-x="448" />
<glyph unicode="&#xa0;" horiz-adv-x="448" />
<glyph unicode="!" horiz-adv-x="356" d="M137 39q4 23 21.5 38t40.5 15t32 -15t5 -38q-10 -51 -60 -51q-23 0 -33 14t-6 37zM244 387l196 993h60l-226 -993h-30z" />
<glyph unicode="&#x22;" d="M98 0v1434h1024v-1434h-1024zM147 49h926v1335h-926v-1335z" />
<glyph unicode="#" d="M98 0v1434h1024v-1434h-1024zM147 49h926v1335h-926v-1335z" />
<glyph unicode="$" d="M98 0v1434h1024v-1434h-1024zM147 49h926v1335h-926v-1335z" />
<glyph unicode="%" d="M98 0v1434h1024v-1434h-1024zM147 49h926v1335h-926v-1335z" />
<glyph unicode="&#x26;" d="M98 0v1434h1024v-1434h-1024zM147 49h926v1335h-926v-1335z" />
<glyph unicode="'" d="M98 0v1434h1024v-1434h-1024zM147 49h926v1335h-926v-1335z" />
<glyph unicode="(" d="M98 0v1434h1024v-1434h-1024zM147 49h926v1335h-926v-1335z" />
<glyph unicode=")" d="M98 0v1434h1024v-1434h-1024zM147 49h926v1335h-926v-1335z" />
<glyph unicode="*" d="M98 0v1434h1024v-1434h-1024zM147 49h926v1335h-926v-1335z" />
<glyph unicode="+" d="M98 0v1434h1024v-1434h-1024zM147 49h926v1335h-926v-1335z" />
<glyph unicode="," horiz-adv-x="280" d="M-20 -272q49 86 101 194.5t91 216.5l76 21q-63 -129 -124 -243t-112 -179z" />
<glyph unicode="-" horiz-adv-x="514" d="M178 545l8 39h392l-9 -39h-391z" />
<glyph unicode="." horiz-adv-x="280" d="M115 39q4 23 21.5 38t39.5 15q23 0 32 -15t5 -38q-10 -51 -59 -51q-23 0 -33 14t-6 37z" />
<glyph unicode="/" horiz-adv-x="626" d="M-18 -82l901 1485h43l-901 -1485h-43z" />
<glyph unicode="0" horiz-adv-x="909" d="M181 364q-1 128 36 298q37 172 93.5 301t127 216t150.5 131t164 44q174 0 235.5 -173t-8.5 -501q-76 -348 -215 -525.5t-324 -177.5q-78 0 -136 43t-90 129.5t-33 214.5zM249.5 177q57.5 -163 199.5 -163q162 0 288.5 169t194.5 495q66 309 15.5 474t-204.5 165 q-74 0 -145.5 -41t-135 -124t-115.5 -206t-85 -284q-70 -322 -12.5 -485z" />
<glyph unicode="1" horiz-adv-x="909" d="M467 1151v35l293 145h39l-283 -1331h-43l275 1288q-8 -2 -37 -16q-27 -12 -83.5 -41t-160.5 -80z" />
<glyph unicode="2" horiz-adv-x="909" d="M90 0l6 29l197 184q135 123 245.5 227.5t193.5 198.5t136.5 183t71.5 184q14 61 9 117.5t-30.5 99.5t-74.5 68.5t-129 25.5q-86 0 -167 -37t-142 -90l-9 31q68 57 152 95t176 38q88 0 146.5 -29t88 -77t35.5 -110.5t-8 -129.5q-20 -96 -76.5 -188.5t-141.5 -188.5 t-193.5 -201.5t-239.5 -226.5l-178 -164v-4h645l-8 -35h-705z" />
<glyph unicode="3" horiz-adv-x="909" d="M98 61l25 37q31 -31 93.5 -57.5t141.5 -26.5q92 0 167 28t131.5 77t93 115.5t53.5 142.5q14 70 -0.5 130t-55 105t-103 71t-144.5 26h-60l6 34h60q61 0 124.5 25t119 67t95.5 99t54 123q10 49 4 96t-30.5 84t-69.5 58.5t-113 21.5q-80 0 -156.5 -31t-123.5 -65l-4 36 q51 35 129.5 66t164.5 31q78 0 130.5 -25.5t81 -67.5t36.5 -94.5t-4 -105.5q-12 -55 -42 -107.5t-73 -95.5t-98 -75.5t-115 -51.5l-2 -4q55 -10 104.5 -39t83.5 -74t48 -105t-2 -132q-16 -82 -58 -154.5t-107 -127t-147.5 -86.5t-183.5 -32q-88 0 -153.5 27t-100.5 57z" />
<glyph unicode="4" horiz-adv-x="909" d="M123 414l6 28l784 889h60l-187 -882h179l-9 -35h-178l-88 -414h-43l88 414h-612zM184 449h559l179 841h-4q-47 -55 -89.5 -106t-89.5 -105l-555 -626v-4z" />
<glyph unicode="5" horiz-adv-x="909" d="M100 51l21 35q39 -29 96 -51.5t143 -22.5q80 0 156 25.5t138.5 76t107.5 123t65 169.5q18 84 3 151.5t-59 114.5t-113.5 72.5t-159.5 25.5q-41 0 -86 -3t-86 -9l204 573h500l-6 -35h-465l-180 -497q70 6 137 6q94 0 168 -27.5t122 -79t66.5 -124t-0.5 -164.5 q-23 -104 -72.5 -184.5t-119.5 -135.5t-154 -84t-172 -29q-92 0 -151.5 23t-102.5 51z" />
<glyph unicode="6" horiz-adv-x="909" d="M163 303.5q-7 104.5 21 237.5q37 170 110 316.5t176 256t234.5 173t282.5 67.5q-2 -10 -2 -19.5t-4 -19.5q-250 -6 -441.5 -181.5t-285.5 -490.5h4q66 92 175.5 150.5t223.5 58.5q82 0 143.5 -28.5t97.5 -82t46 -128.5t-10 -169q-18 -92 -62.5 -177t-108 -149.5 t-143 -102.5t-171.5 -38q-84 0 -145.5 39t-97.5 111t-43 176.5zM205.5 308.5q7.5 -89.5 38 -155t84 -102.5t127.5 -37q82 0 153.5 35t128 93.5t95.5 136t57 163.5q37 174 -29.5 273.5t-214.5 99.5q-66 0 -135.5 -25.5t-128.5 -68.5t-102 -99.5t-58 -119.5 q-23 -104 -15.5 -193.5z" />
<glyph unicode="7" horiz-adv-x="909" d="M172 0l883 1296h-676l6 35h725l-6 -28l-885 -1303h-47z" />
<glyph unicode="8" horiz-adv-x="909" d="M145.5 188.5q-12.5 61.5 1.5 130.5q29 135 134.5 233.5t267.5 152.5l2 6q-115 37 -168 124t-31 197q14 70 53 129.5t92.5 102.5t120 66.5t140.5 23.5q80 0 134 -24.5t84 -64.5t38 -92.5t-2 -107.5q-25 -111 -105 -200t-235 -150v-6q59 -20 108 -56.5t81 -84.5t43 -105 t-1 -119q-18 -84 -61 -151.5t-104.5 -115.5t-135 -74t-153.5 -26q-86 0 -149.5 28t-102.5 75t-51.5 108.5zM191 203q10 -56 44.5 -98t89 -66.5t130.5 -24.5q72 0 137 22.5t119.5 65.5t92.5 103.5t52 136.5q14 61 1 117.5t-48 102.5t-89 80t-122 50q-190 -66 -284.5 -159 t-120.5 -211q-12 -63 -2 -119zM399 1036q-25 -111 32 -193.5t194 -115.5q147 51 231 136t109 198q10 47 5 93t-32 82t-73 58.5t-115 22.5q-66 0 -124.5 -20.5t-103.5 -58.5t-77.5 -89t-45.5 -113z" />
<glyph unicode="9" horiz-adv-x="909" d="M197 -23q2 10 3 19.5t3 19.5q125 2 236.5 51.5t205.5 136.5t168 212t121 282h-4q-63 -92 -171 -150.5t-216 -58.5q-166 0 -243 104.5t-36 293.5q20 92 63.5 177t106 149.5t140 102.5t167.5 38q80 0 141.5 -37t97.5 -107.5t43 -174t-22 -234.5q-37 -170 -109.5 -318.5 t-176 -259t-235.5 -176t-283 -70.5zM309 889q-37 -174 32 -268.5t216 -94.5q61 0 127 26t124 69t101.5 99.5t55.5 119.5q23 104 15.5 191t-39.5 150.5t-84 99.5t-122 36q-80 0 -150.5 -35t-124.5 -93.5t-93 -136t-58 -163.5z" />
<glyph unicode=":" d="M98 0v1434h1024v-1434h-1024zM147 49h926v1335h-926v-1335z" />
<glyph unicode=";" d="M98 0v1434h1024v-1434h-1024zM147 49h926v1335h-926v-1335z" />
<glyph unicode="&#x3c;" d="M98 0v1434h1024v-1434h-1024zM147 49h926v1335h-926v-1335z" />
<glyph unicode="=" horiz-adv-x="1136" d="M164 334l6 37h952l-6 -37h-952zM248 733l8 37h952l-8 -37h-952z" />
<glyph unicode="&#x3e;" d="M98 0v1434h1024v-1434h-1024zM147 49h926v1335h-926v-1335z" />
<glyph unicode="?" horiz-adv-x="686" d="M250 39q4 23 21.5 38t39.5 15q23 0 32 -15t5 -38q-10 -51 -59 -51q-23 0 -33 14t-6 37zM348 381q0 25 3 45t9 43q18 90 62.5 156.5t122.5 142.5q82 82 151.5 172t89.5 186q20 98 -21.5 170t-158.5 72q-51 0 -106.5 -17.5t-98.5 -50.5l-14 29q49 35 111.5 55.5t122.5 20.5 q68 0 113.5 -22.5t71 -60.5t33 -88.5t-4.5 -105.5q-23 -104 -95.5 -198t-158.5 -180q-78 -76 -118 -137.5t-59 -145.5q-4 -23 -8 -43.5t-4 -42.5h-43z" />
<glyph unicode="@" horiz-adv-x="1413" d="M162.5 154.5q-21.5 117.5 11.5 267.5q35 162 114 305t193.5 250.5t257 171t301.5 63.5q123 0 215.5 -43t148.5 -120.5t74.5 -184t-10.5 -235.5q-25 -121 -70.5 -213t-104 -154.5t-124 -95.5t-127.5 -33q-92 0 -110.5 58.5t12.5 148.5h-6q-59 -92 -143 -149.5t-168 -57.5 q-94 0 -135 64.5t-15 189.5q20 98 72.5 186.5t126.5 156t163 107.5t185 40q49 0 92 -8.5t72 -28.5l-187 -439q-57 -135 -38.5 -187t90.5 -52q53 0 109.5 30.5t107.5 90t93 145.5t67 199q27 123 10 224t-69 174t-139 114t-202 41q-147 0 -281.5 -59.5t-242 -162t-184 -240.5 t-109.5 -294q-31 -143 -11.5 -255t76 -189.5t145.5 -118.5t200 -41q82 0 161.5 15t161.5 61l2 -31q-86 -47 -166 -62.5t-168 -15.5q-117 0 -212 43t-156.5 125t-83 199.5zM507 302q1 -40 14.5 -70.5t41 -48t72.5 -17.5q47 0 98 21.5t100.5 68.5t100.5 125t98 188l109 252 q-20 12 -54 17.5t-73 5.5q-86 0 -168 -38t-148.5 -100.5t-113.5 -145.5t-68 -173q-10 -45 -9 -85z" />
<glyph unicode="A" horiz-adv-x="1132" d="M70 0l761 1380h62l176 -1380h-47l-61 489h-576l-270 -489h-45zM406 526h550q-14 115 -29.5 227.5t-27.5 229.5q-10 90 -21.5 178t-21.5 178h-4q-49 -88 -97 -178t-98 -178q-63 -115 -125.5 -228.5t-125.5 -228.5z" />
<glyph unicode="B" horiz-adv-x="987" d="M174 4l289 1358q49 10 112.5 19.5t151.5 9.5q90 0 163 -16.5t120 -53.5q46 -37 64 -99q8 -30 9 -67q0 -40 -10 -88q-29 -129 -136.5 -215t-252.5 -115l-2 -4q72 -12 133.5 -35.5t103.5 -64.5t59 -101q8 -29 8 -65q0 -37 -9 -82q-23 -109 -84.5 -184.5t-147.5 -122.5 t-188 -68.5t-209 -21.5q-104 0 -174 16zM225 37q27 -4 62 -8t75 -4q96 0 189.5 19t170.5 62.5t132 112t76 166.5q9 41 9 77q-1 44 -15 80q-26 64 -85 102t-146 54.5t-187 16.5h-137zM377 750h158q92 0 174 21.5t147.5 62t110.5 100t61 133.5q9 43 9 78q0 31 -7 57 q-14 55 -55 89t-107.5 48.5t-148.5 14.5q-68 0 -126 -7.5t-93 -15.5z" />
<glyph unicode="C" horiz-adv-x="1124" d="M208 376q-7 47 -7 98q0 93 22 204q35 162 110 295t182.5 228t244.5 147.5t299 52.5q104 0 169.5 -19.5t106.5 -40.5l-20 -36q-39 18 -101.5 38.5t-160.5 20.5q-152 0 -281 -49t-228.5 -139.5t-170 -217.5t-103.5 -280q-22 -108 -22 -199q0 -45 6 -86q16 -123 77.5 -207 t163 -127t234.5 -43q102 0 188.5 18.5t137.5 35.5l4 -35q-53 -16 -139 -35.5t-203 -19.5q-141 0 -250 45t-174 133t-85 218z" />
<glyph unicode="D" horiz-adv-x="1271" d="M174 4l289 1356q74 12 160 21.5t170 9.5q154 0 272.5 -40t192.5 -122t98 -207q9 -49 10 -104q0 -88 -23 -193q-78 -365 -312 -551t-587 -186q-72 0 -141.5 3t-128.5 13zM225 35q47 -6 109.5 -8t122.5 -2q332 0 549 176t290 522q22 99 22 182q0 51 -8 97 q-22 118 -89.5 197t-179 117t-257.5 38q-76 0 -148.5 -7.5t-135.5 -17.5z" />
<glyph unicode="E" horiz-adv-x="878" d="M174 0l293 1380h600l-8 -39h-557l-125 -593h526l-8 -39h-526l-144 -670h588l-8 -39h-631z" />
<glyph unicode="F" horiz-adv-x="856" d="M174 0l293 1380h590l-8 -39h-547l-131 -618h503l-8 -39h-504l-145 -684h-43z" />
<glyph unicode="G" horiz-adv-x="1183" d="M206 393q-5 40 -5 82q0 96 24 207q33 152 107 283t180 226t242.5 149.5t289.5 54.5q92 0 158 -20.5t96 -39.5l-20 -37q-31 20 -94.5 40t-147.5 20q-143 0 -269 -51.5t-225.5 -141.5t-169 -213t-100.5 -268q-23 -107 -23 -198q0 -40 5 -78q14 -121 71.5 -207t156 -132 t233.5 -46q100 0 186 22.5t135 42.5l113 524h-291l6 35h332l-125 -586q-51 -23 -148.5 -49t-215.5 -26q-147 0 -253 49t-169.5 139t-78.5 219z" />
<glyph unicode="H" horiz-adv-x="1222" d="M174 0l293 1380h43l-133 -632h788l133 632h43l-292 -1380h-43l151 709h-788l-152 -709h-43z" />
<glyph unicode="I" horiz-adv-x="403" d="M180 0l293 1380h43l-293 -1380h-43z" />
<glyph unicode="J" horiz-adv-x="636" d="M25 8l16 35q29 -10 69 -19.5t87 -9.5q51 0 101 20.5t93 71t79 133.5t62 207l199 934h43l-199 -936q-29 -135 -70.5 -225t-90.5 -143t-105.5 -76t-115.5 -23q-49 0 -94.5 9.5t-73.5 21.5z" />
<glyph unicode="K" horiz-adv-x="993" d="M174 0l293 1380h43l-152 -716h4q43 41 86.5 78.5t86.5 78.5l624 559h58l-654 -583l408 -797h-56l-391 766l-178 -158l-129 -608h-43z" />
<glyph unicode="L" horiz-adv-x="829" d="M174 0l293 1380h43l-285 -1341h574l-8 -39h-617z" />
<glyph unicode="M" horiz-adv-x="1527" d="M135 0l389 1380h72l96 -698q20 -152 35.5 -306.5t34.5 -318.5h4q88 154 177 308.5t183 314.5l404 700h69l-204 -1380h-45l98 670q25 166 52.5 333.5t51.5 331.5h-4q-94 -158 -184 -317.5t-184 -321.5l-402 -690h-51l-84 676q-20 164 -42.5 325.5t-43.5 327.5h-4 q-51 -180 -100.5 -361t-100.5 -370l-172 -604h-45z" />
<glyph unicode="N" horiz-adv-x="1243" d="M174 0l293 1380h51l297 -737q59 -145 113.5 -286.5t111.5 -282.5h4q33 164 67 323.5t69 325.5l139 657h43l-293 -1380h-47l-295 727q-59 147 -114.5 292.5t-114.5 293.5h-4q-33 -164 -67 -326t-71 -330l-139 -657h-43z" />
<glyph unicode="O" horiz-adv-x="1267" d="M165 391q-5 41 -5 85q0 94 22 202q35 164 109 298t173 229t217 146.5t241 51.5q127 0 220 -51.5t147 -143.5q53 -92 67 -220q4 -37 5 -77q0 -96 -24 -206q-37 -178 -113.5 -314.5t-176 -227.5t-214 -138.5t-233.5 -47.5q-121 0 -214 50.5t-149.5 142.5t-71.5 221z M212 411q14 -122 64 -210t134 -137.5t198 -49.5q113 0 220.5 46t197.5 134.5t159.5 216t104.5 291.5q23 104 23 197q1 34 -3 67q-12 121 -62 210.5t-134 139.5t-201 50t-226 -50t-200.5 -141.5t-158 -217.5t-99.5 -279q-22 -101 -22 -191q1 -39 5 -76z" />
<glyph unicode="P" horiz-adv-x="970" d="M174 0l289 1362q45 8 112.5 18.5t161.5 10.5q98 0 174 -20.5t124 -65.5q49 -45 65 -118q7 -31 7 -69q0 -50 -13 -110q-20 -92 -68.5 -169t-120 -131.5t-166 -84t-204.5 -29.5q-49 0 -97.5 3t-91.5 11l-129 -608h-43zM354 645q43 -8 90.5 -11t94.5 -3q211 0 343 103.5 t167 271.5q12 56 12 101q-1 33 -7 61q-14 66 -56 107.5t-111.5 60t-157.5 18.5q-80 0 -136 -8.5t-93 -14.5z" />
<glyph unicode="Q" horiz-adv-x="1308" d="M203 428q-2 26 -2 52q0 93 22 198q35 164 109 298t173 229t217 146.5t241 51.5q127 0 220 -51.5t147 -143.5t68 -221q3 -37 3 -77q0 -96 -23 -205q-35 -164 -101.5 -291t-154.5 -218.5t-192.5 -143.5t-210.5 -66l-2 -4q39 -12 93 -30t115.5 -34t122 -31.5t105.5 -27.5 l-20 -37q-123 31 -232.5 65.5t-208.5 65.5q-27 8 -47 13t-40.5 9.5t-42 8.5t-46.5 12q-92 25 -159.5 84t-106.5 146t-47 202zM252 411q14 -122 64.5 -210t134.5 -137.5t198 -49.5q113 0 220.5 46t197.5 134.5t159.5 216t104.5 291.5q23 104 23 197q0 34 -4 67 q-11 121 -61 210.5t-134 139.5t-201 50t-226.5 -50t-200.5 -141.5t-157.5 -217.5t-99.5 -279q-22 -101 -22 -191q0 -39 4 -76z" />
<glyph unicode="R" horiz-adv-x="978" d="M174 0l289 1360q129 31 274 31q211 -1 301 -91q64 -65 64 -169q0 -42 -10 -91q-27 -129 -123.5 -224t-245.5 -136l-2 -4q100 -23 138 -101.5t44 -220.5q4 -143 7 -235t12 -119h-48q-8 29 -9 119t-7 225q-6 94 -22.5 155.5t-51 96.5t-90 48t-137.5 13h-201l-139 -657h-43z M365 692h192q203 0 329 96t163 250q9 45 9 83q0 97 -60 154q-84 79 -267 79q-63 0 -121.5 -5.5t-109.5 -17.5z" />
<glyph unicode="S" horiz-adv-x="874" d="M100 61l25 41q33 -37 103.5 -60.5t142.5 -23.5q88 0 160.5 27t129 73t92 107.5t50.5 130.5q7 35 7 66q0 28 -6 53q-13 51 -46 92t-80 72t-103 59q-55 29 -104 61t-83 72.5t-49 94.5q-8 28 -8 62q0 31 7 67q18 78 58 141.5t98.5 109.5t131 70.5t156.5 24.5 q78 0 134.5 -19.5t84.5 -42.5l-24 -36q-23 23 -76 42t-125 19q-74 0 -139.5 -22.5t-117.5 -63.5t-87 -96.5t-49 -122.5q-7 -33 -7 -62t7 -53q14 -49 48 -87t82 -67.5t101 -58.5q55 -29 104.5 -63.5t84.5 -78.5q35 -45 48 -101q6 -25 6 -54q0 -36 -9 -76q-16 -78 -56 -146.5 t-102.5 -120.5t-145.5 -81.5t-184 -29.5q-78 0 -148.5 23.5t-111.5 57.5z" />
<glyph unicode="T" horiz-adv-x="862" d="M276 1341l9 39h878l-8 -39h-420l-284 -1341h-43l284 1341h-416z" />
<glyph unicode="U" horiz-adv-x="1214" d="M268 288q-3 26 -2 55q0 92 25 210l176 827h43l-174 -825q-25 -118 -25 -208q0 -19 1 -39q7 -102 45 -167t100.5 -95t140.5 -30q84 0 164 31t148.5 97.5t121.5 170t84 248.5l174 817h43l-174 -817q-33 -156 -91 -266.5t-134 -181t-164 -104.5t-180 -34q-86 0 -157 32 t-113 100.5t-52 178.5z" />
<glyph unicode="V" horiz-adv-x="1019" d="M317 1380h50l71 -675q18 -166 36 -326t34 -322h4q86 158 174 313.5t178 315.5l391 694h50l-785 -1380h-49z" />
<glyph unicode="W" horiz-adv-x="1583" d="M326 1380h47l24 -716q4 -150 11.5 -298.5t9.5 -295.5h4q68 139 137.5 280.5t140.5 284.5l377 745h43l31 -745q4 -141 8 -282.5t8 -282.5h4q74 147 146 295.5t145 300.5l348 714h48l-682 -1380h-43l-29 743q-6 147 -11.5 285.5t-9.5 282.5h-4q-70 -141 -140.5 -282.5 t-141.5 -285.5l-373 -743h-43z" />
<glyph unicode="X" horiz-adv-x="1042" d="M72 0l571 709l-262 671h53l127 -336q31 -74 57.5 -147.5t57.5 -153.5h4q63 72 123.5 149t122.5 152l276 336h53l-553 -669l269 -711h-53l-144 381q-31 76 -57.5 147.5t-50.5 143.5h-4q-57 -72 -115 -143.5t-117 -147.5l-305 -381h-53z" />
<glyph unicode="Y" horiz-adv-x="958" d="M322 1380h51l137 -387q29 -84 55.5 -166t55.5 -163h4q59 84 123.5 163.5t130.5 165.5l303 387h51l-598 -755l-133 -625h-43l133 625z" />
<glyph unicode="Z" horiz-adv-x="1009" d="M76 0l6 27l1069 1312v2h-725l8 39h787l-7 -26l-1069 -1313v-2h801l-8 -39h-862z" />
<glyph unicode="[" d="M98 0v1434h1024v-1434h-1024zM147 49h926v1335h-926v-1335z" />
<glyph unicode="\" horiz-adv-x="626" d="M305 1403h43l254 -1485h-43z" />
<glyph unicode="]" d="M98 0v1434h1024v-1434h-1024zM147 49h926v1335h-926v-1335z" />
<glyph unicode="^" d="M98 0v1434h1024v-1434h-1024zM147 49h926v1335h-926v-1335z" />
<glyph unicode="_" d="M98 0v1434h1024v-1434h-1024zM147 49h926v1335h-926v-1335z" />
<glyph unicode="`" d="M98 0v1434h1024v-1434h-1024zM147 49h926v1335h-926v-1335z" />
<glyph unicode="a" horiz-adv-x="886" d="M127 137q-5 21 -5 45q0 28 7 58q16 82 71.5 145.5t143.5 107.5t205 67.5t258 23.5l4 26q15 63 19 129q1 12 0 24q0 51 -16 94q-20 52 -63.5 85t-125.5 33q-59 0 -130 -19.5t-126 -56.5l-7 35q55 35 132 55.5t141 20.5q94 0 145 -35q50 -35 72 -93q19 -50 19 -112v-18 q-3 -72 -19 -146l-55 -260q-8 -41 -19.5 -95t-19.5 -105.5t-15.5 -91.5t-5.5 -54h-41q4 35 11.5 80t17.5 92h-6q-63 -78 -153.5 -136.5t-207.5 -58.5q-66 0 -113.5 20.5t-77.5 56.5t-40 83zM174 146q10 -44 36 -73.5t67.5 -45t91.5 -15.5q86 0 163.5 42t147.5 118 q35 37 50 81t30 109l39 187q-127 0 -234.5 -19.5t-188.5 -58.5t-133.5 -95.5t-68.5 -131.5q-5 -28 -5 -52t5 -46z" />
<glyph unicode="b" horiz-adv-x="1046" d="M160 0q16 55 33.5 128t35.5 157l248 1167h43l-141 -664h4q33 45 76 85t93 71t105.5 48.5t112.5 17.5q88 0 153.5 -36t106.5 -102q40 -65 50 -158q3 -27 3 -56q0 -70 -16 -150q-27 -127 -79 -226.5t-122.5 -167t-155.5 -102.5t-178 -35q-45 0 -91 11.5t-85 36t-67.5 62.5 t-40.5 91h-4l-45 -178h-39zM279 196q14 -55 48.5 -96t87 -64.5t115.5 -23.5q174 0 307.5 129t184.5 367q17 76 17 142q-1 25 -3 48q-8 86 -43 147.5t-95 95.5t-142 34q-76 0 -145.5 -33t-124 -81t-90.5 -104.5t-46 -103.5l-71 -336q-7 -33 -7 -63t7 -58z" />
<glyph unicode="c" horiz-adv-x="866" d="M180 274q-5 34 -5 70q0 65 15 139q25 117 80.5 214.5t135 166t178 107.5t207.5 39q86 0 135 -16.5t78 -35.5l-23 -34q-25 16 -73 33.5t-126 17.5q-100 0 -188 -36t-161 -101.5t-124 -155.5t-73 -197q-15 -71 -15 -132q1 -33 5 -63q12 -86 54 -148t112.5 -95t164.5 -33 q78 0 144.5 19.5t101.5 38.5l4 -35q-37 -16 -103.5 -36.5t-156.5 -20.5q-104 0 -182 34.5t-124.5 100t-60.5 159.5z" />
<glyph unicode="d" horiz-adv-x="1054" d="M179 282q-2 25 -2 51q0 80 20 175q23 113 75 206t120.5 158.5t152.5 101.5t172 36q117 0 193.5 -53.5t105.5 -127.5h4l133 623h43l-248 -1167q-18 -84 -31.5 -157t-21.5 -128h-39l33 193h-4q-39 -59 -87 -100.5t-99.5 -67t-102.5 -37t-96 -11.5q-92 0 -161 35t-110 102.5 t-50 167.5zM242 508q-21 -96 -20 -174q0 -116 44 -193q76 -129 248 -129q66 0 131.5 25.5t120.5 70t95 104.5t54 130l78 358q3 16 3 32q0 28 -8 58q-13 48 -49 89t-92 68.5t-132 27.5q-84 0 -160 -34t-138.5 -95.5t-107.5 -147.5t-67 -190z" />
<glyph unicode="e" horiz-adv-x="952" d="M197 512q20 98 68 188.5t117 159t155 109.5t182 41q111 0 172 -42t88 -104.5t27 -134.5t-13 -129q-4 -25 -9 -45t-13 -41h-729q-20 -95 -19 -175v-27q4 -91 37 -157.5t98.5 -103.5t167.5 -37t175 19.5t120 40.5v-33q-45 -18 -118.5 -39.5t-184.5 -21.5q-207 0 -292 137 q-51 83 -51 209q0 84 22 186zM252 549h688q4 12 8 28.5t8 34.5q10 49 10 109v6q0 64 -25.5 119t-80.5 92t-151 37q-80 0 -153 -33t-132 -90t-103.5 -135t-68.5 -168z" />
<glyph unicode="f" horiz-adv-x="454" d="M164 0l203 956h-127l8 33h127l10 49q45 211 128 324t218 113q68 0 109 -25l-17 -37q-20 10 -43.5 17.5t-56.5 7.5q-115 0 -184.5 -101.5t-110.5 -298.5l-10 -49h229l-8 -33h-229l-203 -956h-43z" />
<glyph unicode="g" horiz-adv-x="1052" d="M102 -344l27 31q39 -37 105.5 -57.5t136.5 -20.5q102 0 183 36t142.5 103.5t104.5 164.5t69 218l11 53h-4q-80 -98 -183.5 -140t-201.5 -42q-84 0 -151 34t-106.5 98.5t-52.5 159.5q-3 30 -3 63q0 71 18 155q25 113 76 205t120.5 157.5t152.5 100.5t171 35 q55 0 103 -17.5t87 -47.5t65.5 -69.5t37.5 -84.5h4l51 198h39q-16 -55 -33.5 -128t-36.5 -156l-119 -562q-29 -129 -73.5 -234.5t-112 -180t-158 -114.5t-206.5 -40q-76 0 -149 20.5t-114 61.5zM228 309q10 -88 45.5 -148.5t96 -92t138.5 -31.5q66 0 131.5 21.5t121.5 60.5 t97 95t55 124l68 321q4 20 4 42q0 29 -7 61q-13 55 -48 102t-90.5 79t-124.5 32q-84 0 -160 -33t-137.5 -94.5t-107.5 -146.5t-68 -189q-18 -81 -18 -149q0 -28 4 -54z" />
<glyph unicode="h" horiz-adv-x="1024" d="M168 0l309 1452h43l-143 -670h4q74 106 165 167t208 61q86 0 141 -32t82 -90q27 -56 28 -138v-8q0 -79 -20 -175l-121 -567h-43l121 565q20 93 20 161q0 18 -2 34q-6 78 -35.5 126t-77.5 68.5t-106 20.5q-61 0 -117.5 -23.5t-102.5 -59.5t-80.5 -80t-57.5 -87 q-20 -43 -30.5 -77t-24.5 -101l-117 -547h-43z" />
<glyph unicode="i" horiz-adv-x="378" d="M168 0l211 989h43l-211 -989h-43zM416 1274q4 18 20.5 30.5t34.5 12.5q17 -1 27 -13q7 -9 7 -20q0 -5 -1 -10q-4 -18 -18.5 -30.5t-32.5 -12.5q-17 0 -29 12q-9 9 -9 22q0 4 1 9z" />
<glyph unicode="j" horiz-adv-x="397" d="M-152 -426l2 37q59 6 111.5 30.5t89.5 61.5q20 20 40 50t39.5 75t37.5 108.5t37 153.5l192 899h43l-194 -909q-18 -86 -37 -151.5t-39 -112.5t-43 -80t-47 -58q-45 -41 -107.5 -70.5t-124.5 -33.5zM434 1274q4 18 20.5 30.5t34.5 12.5t27 -13q7 -8 7 -20q0 -5 -1 -10 q-4 -18 -18.5 -30.5t-32.5 -12.5t-29 12q-9 9 -9 22q0 4 1 9z" />
<glyph unicode="k" horiz-adv-x="823" d="M168 0l309 1452h43l-219 -1026h4q61 55 120.5 108.5t119.5 108.5l381 346h57l-459 -411l312 -578h-56l-291 551l-198 -176l-80 -375h-43z" />
<glyph unicode="l" horiz-adv-x="378" d="M168 0l309 1452h43l-309 -1452h-43z" />
<glyph unicode="m" horiz-adv-x="1591" d="M168 0l135 639q10 41 19.5 89t18.5 96t16.5 91t13.5 74h39l-37 -211h4q74 106 157.5 169t200.5 63q104 0 167 -69t67 -179h4q74 121 165 184.5t208 63.5q63 0 113 -24.5t81 -69t40 -108.5q3 -23 3 -49q0 -45 -10 -95l-141 -664h-43l137 641q10 53 10 100q0 17 -1 33 q-5 62 -29.5 106t-70.5 69.5t-110 25.5q-57 0 -108.5 -22.5t-94.5 -59.5t-76.5 -81t-56.5 -87q-16 -31 -26.5 -71t-24.5 -107l-117 -547h-43l142 662q6 33 6 67q0 21 -2 42q-6 56 -31 101.5t-67 74t-103 28.5t-112.5 -22.5t-95.5 -59.5t-76.5 -81t-55.5 -87 q-10 -20 -17.5 -37.5t-13.5 -38t-12 -45t-12 -57.5l-117 -547h-43z" />
<glyph unicode="n" horiz-adv-x="1024" d="M168 0l135 639q10 41 19.5 89t18.5 96t16.5 91t13.5 74h39l-37 -211h4q74 106 167 169t210 63q86 0 141 -32t82 -90q27 -56 28 -138v-8q0 -79 -20 -175l-121 -567h-43l121 565q20 93 20 161q0 18 -2 34q-6 78 -35.5 126t-77.5 68.5t-106 20.5q-61 0 -117.5 -23.5 t-102.5 -59.5t-80.5 -80t-57.5 -87q-20 -43 -30.5 -77t-24.5 -101l-117 -547h-43z" />
<glyph unicode="o" horiz-adv-x="1038" d="M180 274q-4 32 -5 66q0 68 18 147q27 125 82 222.5t128.5 164t159.5 101.5t176 35q94 0 165 -37t114 -103q44 -65 54 -159q3 -28 3 -57q0 -70 -18 -150q-29 -139 -89.5 -238.5t-136 -164t-160.5 -94.5t-163 -30q-90 0 -161 35t-112 101.5t-55 160.5zM224 290 q12 -88 49.5 -149t101 -95t147.5 -34q70 0 144.5 30t143.5 90.5t122 152.5t80 219q17 74 17 140q-1 24 -3 48q-8 86 -45 149.5t-100.5 98.5t-149.5 35q-84 0 -163 -34t-144.5 -96.5t-114.5 -153.5t-71 -204q-17 -75 -17 -139q-1 -30 3 -58z" />
<glyph unicode="p" horiz-adv-x="1046" d="M82 -406l235 1111q18 84 31.5 156.5t22.5 127.5h39l-37 -205h4q33 45 77 86t95 72t107.5 49.5t113.5 18.5q88 0 153.5 -36t106.5 -101.5t50 -158.5q3 -27 3 -56q0 -70 -16 -150q-27 -127 -79 -226.5t-122.5 -167t-155.5 -102.5t-178 -35q-45 0 -90 9.5t-84 31t-67.5 56.5 t-42.5 84h-4l-119 -564h-43zM276 311q-7 -33 -7 -64t7 -59q15 -55 50.5 -94t88 -60.5t115.5 -21.5q174 0 307.5 129t184.5 367q17 76 17 142q0 25 -3 48q-8 86 -43 147.5t-95 95.5t-142 34q-76 0 -145.5 -33t-124 -81t-90.5 -104.5t-46 -103.5z" />
<glyph unicode="q" horiz-adv-x="1052" d="M180 282q-3 26 -3 55q0 78 20 171q23 113 75 206t120.5 158.5t152.5 101.5t172 36q55 0 103 -17.5t87 -47.5t65.5 -69.5t37.5 -84.5h4l51 198h39q-16 -55 -33.5 -128t-36.5 -156l-235 -1111h-43l121 570h-5q-80 -98 -183 -142.5t-202 -44.5q-84 0 -150.5 35t-106.5 102.5 t-50 167.5zM224 297q9 -92 45 -155.5t95.5 -96.5t137.5 -33q66 0 132 22.5t122.5 62.5t97.5 96.5t55 123.5l72 342q4 20 4 42q0 29 -7 61q-13 55 -48 102t-90.5 79t-124.5 32q-84 0 -160 -34t-138.5 -95.5t-107 -147.5t-67.5 -190q-20 -89 -20 -163q0 -25 2 -48z" />
<glyph unicode="r" horiz-adv-x="548" d="M168 0l149 707q16 74 28.5 144.5t25.5 137.5h39l-41 -231h4q29 51 66.5 97t80.5 81t87 54.5t85 19.5q12 0 21.5 -1t17.5 -3l-8 -41q-10 2 -20.5 3t-20.5 1q-68 0 -148.5 -61.5t-146.5 -182.5q-23 -43 -36 -86t-25 -102l-115 -537h-43z" />
<glyph unicode="s" horiz-adv-x="686" d="M98 41l25 33q29 -29 78 -44.5t100 -15.5q119 0 202 66.5t105 171.5q7 33 7 59q0 13 -2 25q-5 35 -24.5 63.5t-52 53t-81.5 49.5q-99 48 -147 108q-34 42 -33 102q0 26 6 56q25 117 109.5 179.5t207.5 62.5q57 0 99 -13.5t69 -35.5l-23 -33q-23 20 -60.5 33.5t-96.5 13.5 q-45 0 -87 -11.5t-77 -36t-60.5 -63.5t-37.5 -92q-5 -25 -5 -48q-1 -55 31 -90q44 -50 133 -97q51 -29 88 -54.5t59.5 -58.5t27.5 -74q1 -12 2 -25q0 -32 -9 -71q-25 -123 -121 -198.5t-235 -75.5q-59 0 -110.5 15t-86.5 46z" />
<glyph unicode="t" horiz-adv-x="532" d="M238 70q-6 31 -6 71q0 75 22 181l135 634h-143l8 33h143l41 199l47 14l-45 -213h244l-8 -33h-244l-135 -634q-15 -74 -21 -130q-3 -24 -3 -46q-1 -28 5 -50q8 -39 32 -59.5t69 -20.5q29 0 49.5 7.5t38.5 17.5l-4 -37q-18 -10 -44 -17t-54 -7q-109 0 -127 90z" />
<glyph unicode="u" horiz-adv-x="1019" d="M228 240v7q0 79 22 175l121 567h43l-121 -565q-20 -93 -20 -161q-1 -17 1 -33q6 -78 35 -126.5t75 -69t105 -20.5q61 0 118 23.5t103 59.5t80.5 80t55.5 87q23 43 33 77t24 101l117 547h43l-137 -639q-8 -41 -17.5 -90t-18.5 -96t-17.5 -90t-12.5 -74h-39l37 211h-4 q-74 -106 -166 -168.5t-209 -62.5q-86 0 -141 31.5t-82 89t-28 139.5z" />
<glyph unicode="v" horiz-adv-x="847" d="M242 989h49l90 -608q10 -82 22.5 -164t26.5 -168h4q55 92 101.5 173t97.5 167l352 600h49l-590 -989h-47z" />
<glyph unicode="w" horiz-adv-x="1382" d="M260 989h47l37 -590q6 -92 11 -178t12 -176h4q57 106 112.5 214t112.5 214l283 516h53l47 -516q10 -109 16 -214t17 -214h4q53 106 106.5 208.5t112.5 219.5l268 516h47l-522 -989h-53l-47 528q-8 104 -15.5 208t-15.5 208h-4q-29 -49 -59.5 -107.5t-63.5 -118 t-63.5 -117.5t-57.5 -109l-266 -492h-53z" />
<glyph unicode="x" horiz-adv-x="802" d="M23 0l456 504l-225 485h51l121 -260q23 -47 44.5 -95t41.5 -99q43 43 90 96t88 98l232 260h51l-438 -485l235 -504h-51l-125 268q-25 53 -46.5 103.5t-45.5 101.5q-45 -45 -93.5 -100.5t-93.5 -104.5l-241 -268h-51z" />
<glyph unicode="y" horiz-adv-x="837" d="M-39 -414q147 45 252.5 156t194.5 258q8 16 10 24.5t0 24.5l-176 940h49l127 -690q10 -55 19 -111.5t18 -111.5h2l514 913h49l-406 -710q-70 -123 -126 -218.5t-106 -169t-97 -129t-101 -96.5q-76 -59 -131 -84.5t-86 -32.5z" />
<glyph unicode="z" horiz-adv-x="708" d="M35 0l4 23q199 233 389 463.5t389 463.5v4h-538l8 35h596l-6 -24q-197 -233 -388.5 -464t-386.5 -462v-4h584l-8 -35h-643z" />
<glyph unicode="{" d="M98 0v1434h1024v-1434h-1024zM147 49h926v1335h-926v-1335z" />
<glyph unicode="|" d="M98 0v1434h1024v-1434h-1024zM147 49h926v1335h-926v-1335z" />
<glyph unicode="}" d="M98 0v1434h1024v-1434h-1024zM147 49h926v1335h-926v-1335z" />
<glyph unicode="~" d="M98 0v1434h1024v-1434h-1024zM147 49h926v1335h-926v-1335z" />
<glyph unicode="&#xa1;" d="M98 0v1434h1024v-1434h-1024zM147 49h926v1335h-926v-1335z" />
<glyph unicode="&#xa2;" d="M98 0v1434h1024v-1434h-1024zM147 49h926v1335h-926v-1335z" />
<glyph unicode="&#xa3;" d="M98 0v1434h1024v-1434h-1024zM147 49h926v1335h-926v-1335z" />
<glyph unicode="&#xa4;" d="M98 0v1434h1024v-1434h-1024zM147 49h926v1335h-926v-1335z" />
<glyph unicode="&#xa5;" d="M98 0v1434h1024v-1434h-1024zM147 49h926v1335h-926v-1335z" />
<glyph unicode="&#xa6;" d="M98 0v1434h1024v-1434h-1024zM147 49h926v1335h-926v-1335z" />
<glyph unicode="&#xa7;" d="M98 0v1434h1024v-1434h-1024zM147 49h926v1335h-926v-1335z" />
<glyph unicode="&#xa8;" d="M98 0v1434h1024v-1434h-1024zM147 49h926v1335h-926v-1335z" />
<glyph unicode="&#xa9;" d="M98 0v1434h1024v-1434h-1024zM147 49h926v1335h-926v-1335z" />
<glyph unicode="&#xaa;" d="M98 0v1434h1024v-1434h-1024zM147 49h926v1335h-926v-1335z" />
<glyph unicode="&#xab;" d="M98 0v1434h1024v-1434h-1024zM147 49h926v1335h-926v-1335z" />
<glyph unicode="&#xac;" d="M98 0v1434h1024v-1434h-1024zM147 49h926v1335h-926v-1335z" />
<glyph unicode="&#xad;" d="M98 0v1434h1024v-1434h-1024zM147 49h926v1335h-926v-1335z" />
<glyph unicode="&#xae;" d="M98 0v1434h1024v-1434h-1024zM147 49h926v1335h-926v-1335z" />
<glyph unicode="&#xaf;" d="M98 0v1434h1024v-1434h-1024zM147 49h926v1335h-926v-1335z" />
<glyph unicode="&#xb0;" d="M98 0v1434h1024v-1434h-1024zM147 49h926v1335h-926v-1335z" />
<glyph unicode="&#xb1;" d="M98 0v1434h1024v-1434h-1024zM147 49h926v1335h-926v-1335z" />
<glyph unicode="&#xb2;" d="M98 0v1434h1024v-1434h-1024zM147 49h926v1335h-926v-1335z" />
<glyph unicode="&#xb3;" d="M98 0v1434h1024v-1434h-1024zM147 49h926v1335h-926v-1335z" />
<glyph unicode="&#xb4;" d="M98 0v1434h1024v-1434h-1024zM147 49h926v1335h-926v-1335z" />
<glyph unicode="&#xb5;" d="M98 0v1434h1024v-1434h-1024zM147 49h926v1335h-926v-1335z" />
<glyph unicode="&#xb6;" d="M98 0v1434h1024v-1434h-1024zM147 49h926v1335h-926v-1335z" />
<glyph unicode="&#xb7;" d="M98 0v1434h1024v-1434h-1024zM147 49h926v1335h-926v-1335z" />
<glyph unicode="&#xb8;" d="M98 0v1434h1024v-1434h-1024zM147 49h926v1335h-926v-1335z" />
<glyph unicode="&#xb9;" d="M98 0v1434h1024v-1434h-1024zM147 49h926v1335h-926v-1335z" />
<glyph unicode="&#xba;" d="M98 0v1434h1024v-1434h-1024zM147 49h926v1335h-926v-1335z" />
<glyph unicode="&#xbb;" d="M98 0v1434h1024v-1434h-1024zM147 49h926v1335h-926v-1335z" />
<glyph unicode="&#xbc;" d="M98 0v1434h1024v-1434h-1024zM147 49h926v1335h-926v-1335z" />
<glyph unicode="&#xbd;" d="M98 0v1434h1024v-1434h-1024zM147 49h926v1335h-926v-1335z" />
<glyph unicode="&#xbe;" d="M98 0v1434h1024v-1434h-1024zM147 49h926v1335h-926v-1335z" />
<glyph unicode="&#xbf;" d="M98 0v1434h1024v-1434h-1024zM147 49h926v1335h-926v-1335z" />
<glyph unicode="&#xc0;" d="M98 0v1434h1024v-1434h-1024zM147 49h926v1335h-926v-1335z" />
<glyph unicode="&#xc1;" d="M98 0v1434h1024v-1434h-1024zM147 49h926v1335h-926v-1335z" />
<glyph unicode="&#xc2;" d="M98 0v1434h1024v-1434h-1024zM147 49h926v1335h-926v-1335z" />
<glyph unicode="&#xc3;" d="M98 0v1434h1024v-1434h-1024zM147 49h926v1335h-926v-1335z" />
<glyph unicode="&#xc4;" d="M98 0v1434h1024v-1434h-1024zM147 49h926v1335h-926v-1335z" />
<glyph unicode="&#xc5;" d="M98 0v1434h1024v-1434h-1024zM147 49h926v1335h-926v-1335z" />
<glyph unicode="&#xc6;" d="M98 0v1434h1024v-1434h-1024zM147 49h926v1335h-926v-1335z" />
<glyph unicode="&#xc7;" d="M98 0v1434h1024v-1434h-1024zM147 49h926v1335h-926v-1335z" />
<glyph unicode="&#xc8;" d="M98 0v1434h1024v-1434h-1024zM147 49h926v1335h-926v-1335z" />
<glyph unicode="&#xc9;" d="M98 0v1434h1024v-1434h-1024zM147 49h926v1335h-926v-1335z" />
<glyph unicode="&#xca;" d="M98 0v1434h1024v-1434h-1024zM147 49h926v1335h-926v-1335z" />
<glyph unicode="&#xcb;" d="M98 0v1434h1024v-1434h-1024zM147 49h926v1335h-926v-1335z" />
<glyph unicode="&#xcc;" d="M98 0v1434h1024v-1434h-1024zM147 49h926v1335h-926v-1335z" />
<glyph unicode="&#xcd;" d="M98 0v1434h1024v-1434h-1024zM147 49h926v1335h-926v-1335z" />
<glyph unicode="&#xce;" d="M98 0v1434h1024v-1434h-1024zM147 49h926v1335h-926v-1335z" />
<glyph unicode="&#xcf;" d="M98 0v1434h1024v-1434h-1024zM147 49h926v1335h-926v-1335z" />
<glyph unicode="&#xd0;" d="M98 0v1434h1024v-1434h-1024zM147 49h926v1335h-926v-1335z" />
<glyph unicode="&#xd1;" d="M98 0v1434h1024v-1434h-1024zM147 49h926v1335h-926v-1335z" />
<glyph unicode="&#xd2;" d="M98 0v1434h1024v-1434h-1024zM147 49h926v1335h-926v-1335z" />
<glyph unicode="&#xd3;" d="M98 0v1434h1024v-1434h-1024zM147 49h926v1335h-926v-1335z" />
<glyph unicode="&#xd4;" d="M98 0v1434h1024v-1434h-1024zM147 49h926v1335h-926v-1335z" />
<glyph unicode="&#xd5;" d="M98 0v1434h1024v-1434h-1024zM147 49h926v1335h-926v-1335z" />
<glyph unicode="&#xd6;" d="M98 0v1434h1024v-1434h-1024zM147 49h926v1335h-926v-1335z" />
<glyph unicode="&#xd7;" d="M98 0v1434h1024v-1434h-1024zM147 49h926v1335h-926v-1335z" />
<glyph unicode="&#xd8;" d="M98 0v1434h1024v-1434h-1024zM147 49h926v1335h-926v-1335z" />
<glyph unicode="&#xd9;" d="M98 0v1434h1024v-1434h-1024zM147 49h926v1335h-926v-1335z" />
<glyph unicode="&#xda;" d="M98 0v1434h1024v-1434h-1024zM147 49h926v1335h-926v-1335z" />
<glyph unicode="&#xdb;" d="M98 0v1434h1024v-1434h-1024zM147 49h926v1335h-926v-1335z" />
<glyph unicode="&#xdc;" d="M98 0v1434h1024v-1434h-1024zM147 49h926v1335h-926v-1335z" />
<glyph unicode="&#xdd;" d="M98 0v1434h1024v-1434h-1024zM147 49h926v1335h-926v-1335z" />
<glyph unicode="&#xde;" d="M98 0v1434h1024v-1434h-1024zM147 49h926v1335h-926v-1335z" />
<glyph unicode="&#xdf;" d="M98 0v1434h1024v-1434h-1024zM147 49h926v1335h-926v-1335z" />
<glyph unicode="&#xe0;" d="M98 0v1434h1024v-1434h-1024zM147 49h926v1335h-926v-1335z" />
<glyph unicode="&#xe1;" d="M98 0v1434h1024v-1434h-1024zM147 49h926v1335h-926v-1335z" />
<glyph unicode="&#xe2;" d="M98 0v1434h1024v-1434h-1024zM147 49h926v1335h-926v-1335z" />
<glyph unicode="&#xe3;" d="M98 0v1434h1024v-1434h-1024zM147 49h926v1335h-926v-1335z" />
<glyph unicode="&#xe4;" d="M98 0v1434h1024v-1434h-1024zM147 49h926v1335h-926v-1335z" />
<glyph unicode="&#xe5;" d="M98 0v1434h1024v-1434h-1024zM147 49h926v1335h-926v-1335z" />
<glyph unicode="&#xe6;" d="M98 0v1434h1024v-1434h-1024zM147 49h926v1335h-926v-1335z" />
<glyph unicode="&#xe7;" d="M98 0v1434h1024v-1434h-1024zM147 49h926v1335h-926v-1335z" />
<glyph unicode="&#xe8;" d="M98 0v1434h1024v-1434h-1024zM147 49h926v1335h-926v-1335z" />
<glyph unicode="&#xe9;" d="M98 0v1434h1024v-1434h-1024zM147 49h926v1335h-926v-1335z" />
<glyph unicode="&#xea;" d="M98 0v1434h1024v-1434h-1024zM147 49h926v1335h-926v-1335z" />
<glyph unicode="&#xeb;" d="M98 0v1434h1024v-1434h-1024zM147 49h926v1335h-926v-1335z" />
<glyph unicode="&#xec;" d="M98 0v1434h1024v-1434h-1024zM147 49h926v1335h-926v-1335z" />
<glyph unicode="&#xed;" d="M98 0v1434h1024v-1434h-1024zM147 49h926v1335h-926v-1335z" />
<glyph unicode="&#xee;" d="M98 0v1434h1024v-1434h-1024zM147 49h926v1335h-926v-1335z" />
<glyph unicode="&#xef;" d="M98 0v1434h1024v-1434h-1024zM147 49h926v1335h-926v-1335z" />
<glyph unicode="&#xf0;" d="M98 0v1434h1024v-1434h-1024zM147 49h926v1335h-926v-1335z" />
<glyph unicode="&#xf1;" d="M98 0v1434h1024v-1434h-1024zM147 49h926v1335h-926v-1335z" />
<glyph unicode="&#xf2;" d="M98 0v1434h1024v-1434h-1024zM147 49h926v1335h-926v-1335z" />
<glyph unicode="&#xf3;" d="M98 0v1434h1024v-1434h-1024zM147 49h926v1335h-926v-1335z" />
<glyph unicode="&#xf4;" d="M98 0v1434h1024v-1434h-1024zM147 49h926v1335h-926v-1335z" />
<glyph unicode="&#xf5;" d="M98 0v1434h1024v-1434h-1024zM147 49h926v1335h-926v-1335z" />
<glyph unicode="&#xf6;" d="M98 0v1434h1024v-1434h-1024zM147 49h926v1335h-926v-1335z" />
<glyph unicode="&#xf7;" d="M98 0v1434h1024v-1434h-1024zM147 49h926v1335h-926v-1335z" />
<glyph unicode="&#xf8;" d="M98 0v1434h1024v-1434h-1024zM147 49h926v1335h-926v-1335z" />
<glyph unicode="&#xf9;" d="M98 0v1434h1024v-1434h-1024zM147 49h926v1335h-926v-1335z" />
<glyph unicode="&#xfa;" d="M98 0v1434h1024v-1434h-1024zM147 49h926v1335h-926v-1335z" />
<glyph unicode="&#xfb;" d="M98 0v1434h1024v-1434h-1024zM147 49h926v1335h-926v-1335z" />
<glyph unicode="&#xfc;" d="M98 0v1434h1024v-1434h-1024zM147 49h926v1335h-926v-1335z" />
<glyph unicode="&#xfd;" d="M98 0v1434h1024v-1434h-1024zM147 49h926v1335h-926v-1335z" />
<glyph unicode="&#xfe;" d="M98 0v1434h1024v-1434h-1024zM147 49h926v1335h-926v-1335z" />
<glyph unicode="&#xff;" d="M98 0v1434h1024v-1434h-1024zM147 49h926v1335h-926v-1335z" />
<glyph unicode="&#x152;" d="M98 0v1434h1024v-1434h-1024zM147 49h926v1335h-926v-1335z" />
<glyph unicode="&#x153;" d="M98 0v1434h1024v-1434h-1024zM147 49h926v1335h-926v-1335z" />
<glyph unicode="&#x178;" d="M98 0v1434h1024v-1434h-1024zM147 49h926v1335h-926v-1335z" />
<glyph unicode="&#x2c6;" d="M98 0v1434h1024v-1434h-1024zM147 49h926v1335h-926v-1335z" />
<glyph unicode="&#x2dc;" d="M98 0v1434h1024v-1434h-1024zM147 49h926v1335h-926v-1335z" />
<glyph unicode="&#x2000;" horiz-adv-x="737" />
<glyph unicode="&#x2001;" horiz-adv-x="1475" />
<glyph unicode="&#x2002;" horiz-adv-x="737" />
<glyph unicode="&#x2003;" horiz-adv-x="1475" />
<glyph unicode="&#x2004;" horiz-adv-x="491" />
<glyph unicode="&#x2005;" horiz-adv-x="368" />
<glyph unicode="&#x2006;" horiz-adv-x="245" />
<glyph unicode="&#x2007;" horiz-adv-x="245" />
<glyph unicode="&#x2008;" horiz-adv-x="184" />
<glyph unicode="&#x2009;" horiz-adv-x="295" />
<glyph unicode="&#x200a;" horiz-adv-x="81" />
<glyph unicode="&#x2010;" horiz-adv-x="514" d="M178 545l8 39h392l-9 -39h-391z" />
<glyph unicode="&#x2011;" horiz-adv-x="514" d="M178 545l8 39h392l-9 -39h-391z" />
<glyph unicode="&#x2012;" horiz-adv-x="514" d="M178 545l8 39h392l-9 -39h-391z" />
<glyph unicode="&#x2013;" d="M98 0v1434h1024v-1434h-1024zM147 49h926v1335h-926v-1335z" />
<glyph unicode="&#x2014;" d="M98 0v1434h1024v-1434h-1024zM147 49h926v1335h-926v-1335z" />
<glyph unicode="&#x2018;" d="M98 0v1434h1024v-1434h-1024zM147 49h926v1335h-926v-1335z" />
<glyph unicode="&#x2019;" d="M98 0v1434h1024v-1434h-1024zM147 49h926v1335h-926v-1335z" />
<glyph unicode="&#x201a;" d="M98 0v1434h1024v-1434h-1024zM147 49h926v1335h-926v-1335z" />
<glyph unicode="&#x201c;" d="M98 0v1434h1024v-1434h-1024zM147 49h926v1335h-926v-1335z" />
<glyph unicode="&#x201d;" d="M98 0v1434h1024v-1434h-1024zM147 49h926v1335h-926v-1335z" />
<glyph unicode="&#x201e;" d="M98 0v1434h1024v-1434h-1024zM147 49h926v1335h-926v-1335z" />
<glyph unicode="&#x2022;" d="M98 0v1434h1024v-1434h-1024zM147 49h926v1335h-926v-1335z" />
<glyph unicode="&#x2026;" d="M98 0v1434h1024v-1434h-1024zM147 49h926v1335h-926v-1335z" />
<glyph unicode="&#x202f;" horiz-adv-x="295" />
<glyph unicode="&#x2039;" d="M98 0v1434h1024v-1434h-1024zM147 49h926v1335h-926v-1335z" />
<glyph unicode="&#x203a;" d="M98 0v1434h1024v-1434h-1024zM147 49h926v1335h-926v-1335z" />
<glyph unicode="&#x205f;" horiz-adv-x="368" />
<glyph unicode="&#x20ac;" d="M98 0v1434h1024v-1434h-1024zM147 49h926v1335h-926v-1335z" />
<glyph unicode="&#x2122;" d="M98 0v1434h1024v-1434h-1024zM147 49h926v1335h-926v-1335z" />
<glyph unicode="&#x25fc;" horiz-adv-x="993" d="M0 0v993h993v-993h-993z" />
</font>
</defs>
</svg>
