<?xml version="1.0" standalone="no"?>
<!DOCTYPE svg PUBLIC "-//W3C//DTD SVG 1.1//EN" "http://www.w3.org/Graphics/SVG/1.1/DTD/svg11.dtd" >
<svg xmlns="http://www.w3.org/2000/svg">
<metadata></metadata>
<defs>
<font id="myriad_set_prosemibold" horiz-adv-x="1220" >
<font-face units-per-em="2048" ascent="1638" descent="-410" />
<missing-glyph horiz-adv-x="483" />
<glyph unicode="&#xfb01;" horiz-adv-x="1101" d="M29 829v166h135v52q0 98 30.5 177t90 134t144.5 86t194 31q168 0 262 -64l-54 -168q-90 53 -213 53q-236 0 -235 -258v-43h580v-995h-222v829h-356v-829h-221v829h-135z" />
<glyph unicode="&#xfb02;" horiz-adv-x="1101" d="M29 829v166h135v43q0 98 31.5 179t92 137.5t149.5 88.5t204 32q188 0 322 -72v-1403h-222v1280q-47 25 -135 25q-223 0 -223 -263v-47h213v-166h-211v-829h-221v829h-135z" />
<glyph unicode="&#xfb03;" d="M98 0v1434h1024v-1434h-1024zM147 49h926v1335h-926v-1335z" />
<glyph unicode="&#xfb04;" d="M98 0v1434h1024v-1434h-1024zM147 49h926v1335h-926v-1335z" />
<glyph unicode="&#xd;" horiz-adv-x="483" />
<glyph horiz-adv-x="0" />
<glyph horiz-adv-x="0" />
<glyph unicode=" "  horiz-adv-x="483" />
<glyph unicode="&#x09;" horiz-adv-x="483" />
<glyph unicode="&#xa0;" horiz-adv-x="483" />
<glyph unicode="!" horiz-adv-x="493" d="M106 123q0 63 39 105t101 42q63 0 102 -42t39 -105t-40 -104.5t-103 -41.5q-61 0 -99.5 42t-38.5 104zM127 1380h238l-33 -966h-172z" />
<glyph unicode="&#x22;" d="M98 0v1434h1024v-1434h-1024zM147 49h926v1335h-926v-1335z" />
<glyph unicode="#" d="M98 0v1434h1024v-1434h-1024zM147 49h926v1335h-926v-1335z" />
<glyph unicode="$" d="M98 0v1434h1024v-1434h-1024zM147 49h926v1335h-926v-1335z" />
<glyph unicode="%" d="M98 0v1434h1024v-1434h-1024zM147 49h926v1335h-926v-1335z" />
<glyph unicode="&#x26;" d="M98 0v1434h1024v-1434h-1024zM147 49h926v1335h-926v-1335z" />
<glyph unicode="'" d="M98 0v1434h1024v-1434h-1024zM147 49h926v1335h-926v-1335z" />
<glyph unicode="(" d="M98 0v1434h1024v-1434h-1024zM147 49h926v1335h-926v-1335z" />
<glyph unicode=")" d="M98 0v1434h1024v-1434h-1024zM147 49h926v1335h-926v-1335z" />
<glyph unicode="*" d="M98 0v1434h1024v-1434h-1024zM147 49h926v1335h-926v-1335z" />
<glyph unicode="+" d="M98 0v1434h1024v-1434h-1024zM147 49h926v1335h-926v-1335z" />
<glyph unicode="," horiz-adv-x="456" d="M25 -250q90 248 131 518l237 21q-98 -328 -217 -525z" />
<glyph unicode="-" horiz-adv-x="632" d="M61 471v156h510v-156h-510z" />
<glyph unicode="." horiz-adv-x="456" d="M104 125q0 63 40 106t102 43q63 0 102 -41.5t39 -107.5q0 -63 -39 -105.5t-104 -42.5q-61 0 -100.5 43t-39.5 105z" />
<glyph unicode="/" horiz-adv-x="686" d="M8 -82l522 1485h160l-522 -1485h-160z" />
<glyph unicode="0" horiz-adv-x="1062" d="M70 662q0 274 98 458q123 233 373 234q246 0 362 -230q88 -176 88 -448q0 -285 -92 -465q-119 -233 -377 -234q-242 0 -360 236q-92 180 -92 449zM291 659q0 -182 39 -311q59 -199 200 -198q238 0 238 520q0 512 -238 512q-139 0 -200 -207q-39 -133 -39 -316z" />
<glyph unicode="1" horiz-adv-x="1062" d="M195 1174l309 157h186v-1331h-213v1128h-4l-237 -122z" />
<glyph unicode="2" horiz-adv-x="1062" d="M88 0v135l150 144q258 252 348 370q117 154 116 285q2 238 -241 237q-139 0 -279 -108l-65 158q162 133 387 133q205 0 319 -121q102 -109 103 -275q0 -168 -117 -337q-92 -137 -301 -332l-109 -101v-4h555v-184h-866z" />
<glyph unicode="3" horiz-adv-x="1062" d="M82 68l51 168q135 -80 295 -80q139 0 215 75q63 61 62 156q0 119 -99 184q-84 59 -217 60h-104v162h102q104 0 182 47q92 57 93 155q0 80 -55.5 130.5t-162.5 50.5q-141 0 -264 -84l-51 161q141 100 360 101q190 0 299 -99q98 -88 99 -223q0 -223 -242 -313v-4 q125 -23 207 -113t82 -223q0 -172 -129 -283q-137 -119 -369 -119q-219 0 -354 91z" />
<glyph unicode="4" horiz-adv-x="1062" d="M37 348v146l553 837h254v-813h174v-170h-174v-348h-209v348h-598zM252 518h383v391q0 99 6 224l-6 2q-35 -76 -115 -217z" />
<glyph unicode="5" horiz-adv-x="1062" d="M84 55l49 170q125 -72 283 -71q121 0 208 71.5t87 192.5q-2 272 -375 272q-88 0 -178 -12l86 653h657v-184h-500l-43 -295q47 6 97 6q176 0 305 -80q176 -113 176 -342q0 -197 -143.5 -328t-370.5 -131q-207 0 -338 78z" />
<glyph unicode="6" horiz-adv-x="1062" d="M66 547q0 377 227 600q170 166 446 196q78 8 127 9v-178q-59 2 -129 -9q-195 -27 -313 -151q-104 -109 -131 -271h6q111 137 303 138q174 0 285.5 -117.5t111.5 -312.5t-122 -330q-127 -143 -330 -144q-223 0 -352 158t-129 412zM287 492q2 -147 63 -242 q70 -104 199 -105q106 0 168 88q57 80 57 205q0 127 -65.5 203t-176.5 76q-158 0 -229 -146q-18 -37 -16 -79z" />
<glyph unicode="7" horiz-adv-x="1062" d="M109 1147v184h860v-143l-559 -1188h-232l557 1147h-626z" />
<glyph unicode="8" horiz-adv-x="1062" d="M72 340q0 240 252 352v6q-205 98 -205 295q0 168 133 269q119 92 293 92q162 0 274 -82q123 -92 123 -250q0 -203 -207 -305v-6q256 -102 256 -340q0 -186 -143 -295q-131 -98 -322 -99q-182 0 -309 91q-145 100 -145 272zM299 367q0 -102 66.5 -167t169.5 -65 q100 0 166.5 58.5t66.5 156.5q0 193 -258 268q-94 -29 -150 -90q-61 -70 -61 -161zM334 1006q0 -160 225 -226q176 59 176 219q0 90 -54 144.5t-144 54.5q-88 0 -145.5 -52t-57.5 -140z" />
<glyph unicode="9" horiz-adv-x="1062" d="M76 881q0 195 127 329q133 143 336 144q213 0 335 -160q117 -152 117 -406q0 -332 -160 -542q-170 -227 -487 -258q-100 -10 -156 -8v180q49 -6 140 4q158 16 268 112q135 117 170 320h-4q-109 -125 -293 -125q-174 0 -283.5 114.5t-109.5 295.5zM295 893 q0 -115 62.5 -187.5t166.5 -72.5q158 0 228 121q14 26 14 73q0 150 -51 244q-63 117 -191 117q-106 0 -170 -90q-59 -82 -59 -205z" />
<glyph unicode=":" d="M98 0v1434h1024v-1434h-1024zM147 49h926v1335h-926v-1335z" />
<glyph unicode=";" d="M98 0v1434h1024v-1434h-1024zM147 49h926v1335h-926v-1335z" />
<glyph unicode="&#x3c;" d="M98 0v1434h1024v-1434h-1024zM147 49h926v1335h-926v-1335z" />
<glyph unicode="=" d="M82 274v144h1057v-144h-1057zM82 682v143h1057v-143h-1057z" />
<glyph unicode="&#x3e;" d="M98 0v1434h1024v-1434h-1024zM147 49h926v1335h-926v-1335z" />
<glyph unicode="?" horiz-adv-x="843" d="M100 1323q121 82 303 82q174 0 271 -94q86 -84 86 -213q0 -96 -53 -191q-33 -57 -121 -162q-117 -137 -111 -288l2 -47h-194l-7 51q-14 178 123 346q135 162 136 260q0 156 -179 158q-119 0 -200 -62zM233 123q0 63 40 105t102 42q63 0 101 -40.5t38 -106.5 q0 -63 -39 -104.5t-102 -41.5q-61 0 -100.5 42t-39.5 104z" />
<glyph unicode="@" horiz-adv-x="1511" d="M92 616q0 326 203 551q213 236 543 236q264 0 429 -165t165 -421q0 -225 -106.5 -359t-262.5 -134q-158 0 -158 172h-6q-104 -172 -278 -172q-94 0 -157 69.5t-63 188.5q0 197 131 338q139 147 349 147q133 0 223 -45l-68 -375q-10 -63 -10 -106q0 -104 68 -107 q82 -2 143 94q70 106 70 277q0 221 -127 354q-131 141 -361 141q-250 0 -422 -182q-178 -190 -178 -489q0 -252 148 -402q141 -145 370 -145q174 0 303 70l33 -97q-156 -80 -364 -80q-258 0 -433 172q-184 180 -184 469zM557 596q0 -145 123 -145q74 0 138.5 79.5 t82.5 176.5l39 223q-39 12 -86 12q-123 0 -210 -103.5t-87 -242.5z" />
<glyph unicode="A" horiz-adv-x="1259" d="M45 0l444 1380h275l446 -1380h-235l-129 406h-449l-123 -406h-229zM436 575h371l-117 361q-18 55 -69 260h-5q-20 -88 -65 -260z" />
<glyph unicode="B" horiz-adv-x="1136" d="M147 4v1358q139 29 345 29q254 0 384 -92.5t130 -254.5q0 -98 -60.5 -179t-169.5 -120v-6q117 -29 193 -110q86 -97 86 -234q0 -168 -125 -278q-143 -129 -492 -129q-160 0 -291 16zM367 164q41 -8 135 -8q141 0 223 55q98 63 98 190q0 123 -96 187q-86 57 -229 57h-131 v-481zM367 807h137q129 0 203.5 59.5t74.5 155.5q0 203 -270 203q-94 0 -145 -13v-405z" />
<glyph unicode="C" horiz-adv-x="1169" d="M72 676q0 332 204 532q199 193 515 193q208 -1 319 -60l-49 -178q-115 53 -262 54q-223 0 -355 -136q-139 -141 -139 -395q0 -244 129 -382t359 -138q162 0 272 51l39 -176q-123 -59 -350 -59q-311 0 -494 182q-188 188 -188 512z" />
<glyph unicode="D" horiz-adv-x="1355" d="M147 4v1358q176 29 381 29q362 0 547 -158q207 -178 207 -510q0 -373 -223 -561q-207 -174 -588 -174q-188 0 -324 16zM369 170q41 -6 149 -6q254 0 392.5 141.5t138.5 411.5q0 242 -128 371t-374 129q-104 0 -178 -15v-1032z" />
<glyph unicode="E" horiz-adv-x="1015" d="M147 0v1380h766v-182h-544v-389h514v-182h-514v-445h573v-182h-795z" />
<glyph unicode="F" horiz-adv-x="1005" d="M147 0v1380h762v-182h-540v-416h501v-180h-501v-602h-222z" />
<glyph unicode="G" horiz-adv-x="1318" d="M277.5 1198.5q205.5 196.5 541.5 196.5q215 0 346 -64l-49 -180q-127 57 -301 57q-231 0 -369 -133q-141 -139 -141 -385t135 -387q129 -135 353 -135q139 0 200 29v374h-252v174h465v-684q-198 -75 -418 -75h-6q-332 0 -518 180q-192 185 -192 509q0 327 205.5 523.5z " />
<glyph unicode="H" horiz-adv-x="1335" d="M147 0v1380h222v-563h598v563h221v-1380h-221v623h-598v-623h-222z" />
<glyph unicode="I" horiz-adv-x="516" d="M147 0v1380h222v-1380h-222z" />
<glyph unicode="J" horiz-adv-x="770" d="M4 10l29 178q67 -24 141 -24h6q119 0 174 65q61 74 62 250v901h221v-911q0 -492 -434 -492q-117 0 -199 33z" />
<glyph unicode="K" horiz-adv-x="1140" d="M147 0v1380h220v-647h6q53 84 102 150l375 497h272l-475 -587l508 -793h-260l-403 649l-125 -147v-502h-220z" />
<glyph unicode="L" horiz-adv-x="974" d="M147 0v1380h222v-1194h563v-186h-785z" />
<glyph unicode="M" horiz-adv-x="1646" d="M113 0l92 1380h284l199 -598q74 -221 129 -475h6q66 264 140 475l206 598h285l80 -1380h-215l-29 578q-18 355 -18 545v36h-6q-66 -244 -162 -522l-215 -625h-168l-197 615q-88 279 -143 532h-4q-10 -311 -25 -592l-33 -567h-206z" />
<glyph unicode="N" horiz-adv-x="1343" d="M147 0v1380h246l381 -632q133 -221 236 -457l4 2q-23 233 -23 573v514h207v-1380h-227l-381 641q-154 260 -246 471l-6 -2q14 -231 14 -586v-524h-205z" />
<glyph unicode="O" horiz-adv-x="1396" d="M72 680q0 303 164 506q176 217 471 217q291 0 460 -209q158 -192 158 -489q0 -313 -160 -512q-172 -215 -477 -216q-289 0 -459 211q-158 195 -157 492zM303 686q0 -207 92 -354q109 -176 301 -176q199 0 305 180q89 147 89 360q0 205 -93 353q-106 176 -299 176 q-199 0 -305 -181q-90 -147 -90 -358z" />
<glyph unicode="P" horiz-adv-x="1105" d="M147 0v1362q158 29 361 29q262 0 395 -113q127 -111 127 -299q0 -190 -112 -305q-145 -150 -424 -150q-82 0 -127 11v-535h-220zM367 711q47 -12 129 -13q147 0 231 72t84 199q0 121 -78 185.5t-217 64.5q-92 0 -149 -13v-495z" />
<glyph unicode="Q" horiz-adv-x="1396" d="M72 678q0 324 177 524.5t462 200.5q281 0 450 -201q164 -193 164 -497q0 -248 -102 -420q-96 -164 -260 -226v-8q175 -49 372 -86l-63 -178q-250 68 -522 170q-51 18 -84 20q-254 12 -416 189q-178 190 -178 512zM305 684q0 -207 92 -354q109 -174 301 -174 q199 0 306 180q88 147 88 360q0 205 -91 353q-106 176 -299 176q-199 0 -305 -181q-92 -150 -92 -360z" />
<glyph unicode="R" horiz-adv-x="1122" d="M147 0v1362q152 29 359 29q281 0 409 -111q115 -98 115 -272q0 -127 -76 -224q-68 -86 -176 -125v-4q141 -53 195 -274q41 -172 59 -238q29 -108 47 -143h-229q-33 61 -90 328q-29 139 -87.5 195.5t-168.5 56.5h-137v-580h-220zM367 743h155q131 0 209 66.5t78 175.5 q0 236 -283 238q-106 0 -159 -15v-465z" />
<glyph unicode="S" horiz-adv-x="1021" d="M82 66l51 184q145 -86 320 -86q125 0 194.5 56t69.5 151q0 84 -57.5 141t-190.5 106q-362 135 -363 396q0 170 128 278.5t339 108.5q188 0 314 -66l-56 -180q-117 63 -264 64q-117 0 -182 -58q-55 -51 -55 -125q0 -82 63 -135q55 -49 201 -106q178 -72 262 -168.5 t84 -239.5q0 -176 -123 -287q-134 -120 -373 -120h-4q-223 0 -358 86z" />
<glyph unicode="T" horiz-adv-x="1032" d="M10 1194v186h1012v-186h-395v-1194h-224v1194h-393z" />
<glyph unicode="U" horiz-adv-x="1323" d="M145 575v805h222v-817q0 -203 82 -307q74 -98 208 -98q299 0 299 405v817h222v-800q0 -305 -148 -459q-135 -143 -381 -144q-504 0 -504 598z" />
<glyph unicode="V" horiz-adv-x="1175" d="M12 1380h242l192 -647q98 -326 138 -508h4q43 195 143 506l207 649h236l-472 -1380h-249z" />
<glyph unicode="W" horiz-adv-x="1734" d="M31 1380h235l142 -653q49 -229 92 -479h4q27 166 104 481l160 651h229l146 -657q61 -268 88 -471h4q35 209 90 444l8 35l156 649h225l-373 -1380h-233l-152 672q-59 260 -82 442h-4q-29 -178 -96 -442l-172 -672h-235z" />
<glyph unicode="X" horiz-adv-x="1171" d="M43 0l406 700l-390 680h252l160 -299q66 -125 117 -231h4q49 111 113 231l159 299h252l-401 -673l415 -707h-256l-155 289q-51 90 -144 262h-4q-14 -37 -131 -264l-145 -287h-252z" />
<glyph unicode="Y" horiz-adv-x="1126" d="M23 1380h251l172 -362q78 -166 125 -281h4q43 113 123 281l174 362h250l-450 -796v-584h-221v578z" />
<glyph unicode="Z" horiz-adv-x="1122" d="M55 0v125l711 1071h-649v184h934v-133l-703 -1063h713v-184h-1006z" />
<glyph unicode="[" d="M98 0v1434h1024v-1434h-1024zM147 49h926v1335h-926v-1335z" />
<glyph unicode="\" horiz-adv-x="696" d="M8 1403h162l518 -1485h-160z" />
<glyph unicode="]" d="M98 0v1434h1024v-1434h-1024zM147 49h926v1335h-926v-1335z" />
<glyph unicode="^" d="M98 0v1434h1024v-1434h-1024zM147 49h926v1335h-926v-1335z" />
<glyph unicode="_" d="M98 0v1434h1024v-1434h-1024zM147 49h926v1335h-926v-1335z" />
<glyph unicode="`" d="M98 0v1434h1024v-1434h-1024zM147 49h926v1335h-926v-1335z" />
<glyph unicode="a" horiz-adv-x="1003" d="M68 270q0 182 152 278q149 95 418 95h11v19q0 196 -205 196h-2q-147 0 -260 -74l-45 146q139 86 342 86q391 0 391 -412v-366q1 -150 15 -238h-199l-16 115h-6q-102 -137 -291 -138q-141 0 -228 91q-78 82 -77 202zM330 178q43 -39 108 -39q74 0 136.5 46t76.5 118 q4 16 4 39v154h-20q-348 0 -348 -200q0 -79 43 -118z" />
<glyph unicode="b" horiz-adv-x="1163" d="M131 0q8 121 8 268v1184h221v-602h5q98 166 317 166q180 0 294 -138.5t114 -365.5q0 -252 -140 -401q-123 -133 -301 -134q-213 0 -313 177h-4l-13 -154h-188zM360 403q0 -102 69 -175.5t171 -73.5q125 0 194.5 94t69.5 256q0 145 -65 237q-72 100 -195 101 q-82 0 -147.5 -53.5t-87.5 -141.5q-8 -35 -9 -69v-175z" />
<glyph unicode="c" horiz-adv-x="899" d="M74 487q0 231 145.5 380t390.5 149q140 0 240 -47l-43 -168q-84 41 -193 41q-145 0 -230 -97.5t-85 -246.5q0 -158 89 -250t226 -92q102 0 201 41l31 -166q-109 -51 -275 -51q-227 0 -362 138t-135 369z" />
<glyph unicode="d" horiz-adv-x="1155" d="M74 485q0 242 129 392q125 139 307 139q201 0 281 -135h4v571h221v-1184q0 -145 8 -268h-197l-10 160h-6q-94 -182 -319 -183q-180 0 -299 141.5t-119 366.5zM297 494q0 -147 68 -240q72 -98 192 -98q109 0 174 82q64 76 64 182v166q0 43 -7 69q-18 80 -79.5 134.5 t-147.5 54.5q-123 0 -193.5 -98.5t-70.5 -251.5z" />
<glyph unicode="e" horiz-adv-x="1026" d="M74 483q0 225 123 375q129 160 348 160q215 0 325 -160q88 -127 88 -313q0 -59 -8 -101h-663q4 -147 96 -225q83 -69 213 -69h4q147 0 268 47l35 -154q-141 -61 -334 -61q-231 0 -363 136t-132 365zM287 602h461v8q0 93 -43 162q-57 92 -177 92q-109 0 -176 -90 q-55 -72 -65 -172z" />
<glyph unicode="f" horiz-adv-x="624" d="M29 829v166h135v45q0 227 117 340q98 94 249 95q88 0 156 -27l-20 -172q-49 20 -109 20q-174 0 -174 -249v-52h223v-166h-221v-829h-221v829h-135z" />
<glyph unicode="g" horiz-adv-x="1142" d="M74 492q0 240 135 387q125 137 305 137q203 0 291 -158h4l8 137h195q-8 -121 -8 -282v-570q0 -322 -144 -450q-131 -119 -368 -119q-207 0 -334 78l51 170q125 -76 283 -76q293 0 292 315v97h-4q-92 -152 -293 -152q-180 0 -296.5 137.5t-116.5 348.5zM297 500 q0 -143 68 -232q70 -96 190 -96q74 0 132 44t83 120q12 37 12 90v176q0 100 -62.5 172t-164.5 72q-113 0 -185.5 -94.5t-72.5 -251.5z" />
<glyph unicode="h" horiz-adv-x="1138" d="M139 0v1452h221v-598h5q104 162 299 162q137 0 227 -90q113 -113 113 -334v-592h-222v567q0 268 -200 269q-154 0 -211 -156q-10 -33 -11 -80v-600h-221z" />
<glyph unicode="i" horiz-adv-x="499" d="M115 1292q0 57 39 94t96 37t96 -37t39 -94q0 -59 -39 -96t-100 -37q-55 0 -93 38t-38 95zM139 0v995h221v-995h-221z" />
<glyph unicode="j" horiz-adv-x="522" d="M-88 -260q133 10 188 74q66 72 66 352v829h221v-899q0 -293 -125 -415q-113 -113 -328 -115zM141 1292q0 57 39 94t99 37q57 0 95 -37t38 -94q0 -59 -39 -96t-99 -37q-57 0 -95 38t-38 95z" />
<glyph unicode="k" horiz-adv-x="993" d="M139 0v1452h221v-901h5q41 66 79 115l256 329h265l-367 -409l418 -586h-271l-301 455l-84 -103v-352h-221z" />
<glyph unicode="l" horiz-adv-x="499" d="M139 0v1452h221v-1452h-221z" />
<glyph unicode="m" horiz-adv-x="1697" d="M131 995h191l10 -149h6q102 170 303 170q203 0 274 -187h5q47 78 116 125q88 61 203 62q133 0 219 -90q106 -113 107 -336v-590h-217v559q0 276 -189 277q-90 0 -144 -69t-54 -161v-606h-218v588q0 113 -46 180.5t-136 67.5t-147.5 -74t-57.5 -168v-594h-217v711 q0 131 -8 284z" />
<glyph unicode="n" horiz-adv-x="1138" d="M131 995h195l10 -153h6q39 72 115 119q90 55 200 55q139 0 232 -90q115 -111 115 -330v-596h-222v571q0 264 -200 265q-98 0 -160 -73t-62 -171v-592h-221v711q0 131 -8 284z" />
<glyph unicode="o" horiz-adv-x="1120" d="M74 489q0 231 134 379t361 148q219 0 353 -146q127 -141 127 -364q0 -229 -131 -377q-137 -152 -365 -152q-219 0 -349 145.5t-130 366.5zM299 496q0 -137 59 -236q72 -119 201 -119q127 0 199 121q61 101 61 238t-59 235q-70 119 -199 119q-133 0 -203 -119 q-59 -98 -59 -239z" />
<glyph unicode="p" horiz-adv-x="1163" d="M131 995h195l12 -157h4q111 178 336 178q176 0 294 -139.5t118 -366.5q0 -254 -138 -401q-123 -131 -305 -132q-197 0 -282 142h-5v-525h-221v1074q0 160 -8 327zM360 410q0 -109 67 -183.5t173 -74.5q125 0 194.5 96t69.5 254q0 145 -65 239q-72 98 -193 99 q-82 0 -148.5 -54.5t-86.5 -142.5q-10 -41 -11 -68v-165z" />
<glyph unicode="q" horiz-adv-x="1153" d="M74 481q0 256 141 406q123 129 297 129q203 0 289 -158h4l8 137h211q-8 -170 -8 -284v-1117h-221v547h-4q-96 -164 -308 -164q-172 0 -290.5 139.5t-118.5 364.5zM299 494q0 -150 63 -240q72 -100 195 -100q78 0 139.5 47t85.5 129q13 41 13 80v180q0 102 -64.5 177 t-169.5 75q-123 0 -192.5 -97.5t-69.5 -250.5z" />
<glyph unicode="r" horiz-adv-x="694" d="M133 995h193l8 -190h6q35 98 111 158q74 53 159 53q31 0 56 -4v-211q-33 6 -70 6q-117 0 -180 -88q-55 -78 -56 -197v-522h-221l2 682q0 172 -8 313z" />
<glyph unicode="s" horiz-adv-x="823" d="M74 47l47 164q115 -70 244 -70q170 0 170 125q0 55 -37 91t-131 71q-266 98 -267 287q0 129 98.5 215t260.5 86q147 0 252 -60l-47 -157q-96 57 -203 57q-70 0 -109 -32.5t-39 -84.5q0 -51 41 -84q35 -31 135 -67q259 -98 259 -301q0 -139 -102.5 -223t-283.5 -84 q-170 0 -288 67z" />
<glyph unicode="t" horiz-adv-x="694" d="M35 829v166h145v183l217 65v-248h244v-166h-244v-483q0 -184 129 -184q59 0 99 10l6 -168q-63 -24 -164 -24h-8q-131 0 -205 79.5t-74 268.5v501h-145z" />
<glyph unicode="u" horiz-adv-x="1130" d="M133 410v585h221v-549q0 -286 196 -286h1q147 0 205 143q14 37 14 84v608h221v-708q0 -142 8 -287h-194l-12 152h-5q-104 -174 -315 -175q-147 0 -235 93q-104 113 -105 340z" />
<glyph unicode="v" horiz-adv-x="1001" d="M25 995h237l170 -526q43 -131 72 -252h6q25 109 72 252l168 526h231l-377 -995h-215z" />
<glyph unicode="w" horiz-adv-x="1501" d="M31 995h227l113 -473q41 -168 67 -319h4q25 125 82 317l142 475h180l135 -465q49 -170 80 -327h6q23 154 68 327l120 465h218l-312 -995h-203l-129 432q-49 162 -79 322h-5q-29 -164 -79 -322l-138 -432h-204z" />
<glyph unicode="x" horiz-adv-x="970" d="M14 0l340 508l-327 487h245l125 -198q37 -57 92 -158h7q45 88 90 162l116 194h242l-330 -479l336 -516h-250l-129 209q-43 70 -94 166h-4q-31 -59 -94 -166l-123 -209h-242z" />
<glyph unicode="y" horiz-adv-x="983" d="M16 995h244l189 -555q27 -76 59 -196h4q18 66 55 198l168 553h236l-252 -690q-180 -489 -338 -631q-117 -104 -244 -125l-53 187q76 23 149 78q88 68 140 174q16 31 16 45t-12 47z" />
<glyph unicode="z" horiz-adv-x="888" d="M39 0v129l397 522q37 49 135 162v4h-493v178h762v-137l-389 -514q-66 -84 -136 -162v-4h535v-178h-811z" />
<glyph unicode="{" d="M98 0v1434h1024v-1434h-1024zM147 49h926v1335h-926v-1335z" />
<glyph unicode="|" d="M98 0v1434h1024v-1434h-1024zM147 49h926v1335h-926v-1335z" />
<glyph unicode="}" d="M98 0v1434h1024v-1434h-1024zM147 49h926v1335h-926v-1335z" />
<glyph unicode="~" d="M98 0v1434h1024v-1434h-1024zM147 49h926v1335h-926v-1335z" />
<glyph unicode="&#xa1;" d="M98 0v1434h1024v-1434h-1024zM147 49h926v1335h-926v-1335z" />
<glyph unicode="&#xa2;" d="M98 0v1434h1024v-1434h-1024zM147 49h926v1335h-926v-1335z" />
<glyph unicode="&#xa3;" d="M98 0v1434h1024v-1434h-1024zM147 49h926v1335h-926v-1335z" />
<glyph unicode="&#xa4;" d="M98 0v1434h1024v-1434h-1024zM147 49h926v1335h-926v-1335z" />
<glyph unicode="&#xa5;" d="M98 0v1434h1024v-1434h-1024zM147 49h926v1335h-926v-1335z" />
<glyph unicode="&#xa6;" d="M98 0v1434h1024v-1434h-1024zM147 49h926v1335h-926v-1335z" />
<glyph unicode="&#xa7;" d="M98 0v1434h1024v-1434h-1024zM147 49h926v1335h-926v-1335z" />
<glyph unicode="&#xa8;" d="M98 0v1434h1024v-1434h-1024zM147 49h926v1335h-926v-1335z" />
<glyph unicode="&#xa9;" d="M98 0v1434h1024v-1434h-1024zM147 49h926v1335h-926v-1335z" />
<glyph unicode="&#xaa;" d="M98 0v1434h1024v-1434h-1024zM147 49h926v1335h-926v-1335z" />
<glyph unicode="&#xab;" d="M98 0v1434h1024v-1434h-1024zM147 49h926v1335h-926v-1335z" />
<glyph unicode="&#xac;" d="M98 0v1434h1024v-1434h-1024zM147 49h926v1335h-926v-1335z" />
<glyph unicode="&#xad;" d="M98 0v1434h1024v-1434h-1024zM147 49h926v1335h-926v-1335z" />
<glyph unicode="&#xae;" d="M98 0v1434h1024v-1434h-1024zM147 49h926v1335h-926v-1335z" />
<glyph unicode="&#xaf;" d="M98 0v1434h1024v-1434h-1024zM147 49h926v1335h-926v-1335z" />
<glyph unicode="&#xb0;" d="M98 0v1434h1024v-1434h-1024zM147 49h926v1335h-926v-1335z" />
<glyph unicode="&#xb1;" d="M98 0v1434h1024v-1434h-1024zM147 49h926v1335h-926v-1335z" />
<glyph unicode="&#xb2;" d="M98 0v1434h1024v-1434h-1024zM147 49h926v1335h-926v-1335z" />
<glyph unicode="&#xb3;" d="M98 0v1434h1024v-1434h-1024zM147 49h926v1335h-926v-1335z" />
<glyph unicode="&#xb4;" d="M98 0v1434h1024v-1434h-1024zM147 49h926v1335h-926v-1335z" />
<glyph unicode="&#xb5;" d="M98 0v1434h1024v-1434h-1024zM147 49h926v1335h-926v-1335z" />
<glyph unicode="&#xb6;" d="M98 0v1434h1024v-1434h-1024zM147 49h926v1335h-926v-1335z" />
<glyph unicode="&#xb7;" d="M98 0v1434h1024v-1434h-1024zM147 49h926v1335h-926v-1335z" />
<glyph unicode="&#xb8;" d="M98 0v1434h1024v-1434h-1024zM147 49h926v1335h-926v-1335z" />
<glyph unicode="&#xb9;" d="M98 0v1434h1024v-1434h-1024zM147 49h926v1335h-926v-1335z" />
<glyph unicode="&#xba;" d="M98 0v1434h1024v-1434h-1024zM147 49h926v1335h-926v-1335z" />
<glyph unicode="&#xbb;" d="M98 0v1434h1024v-1434h-1024zM147 49h926v1335h-926v-1335z" />
<glyph unicode="&#xbc;" d="M98 0v1434h1024v-1434h-1024zM147 49h926v1335h-926v-1335z" />
<glyph unicode="&#xbd;" d="M98 0v1434h1024v-1434h-1024zM147 49h926v1335h-926v-1335z" />
<glyph unicode="&#xbe;" d="M98 0v1434h1024v-1434h-1024zM147 49h926v1335h-926v-1335z" />
<glyph unicode="&#xbf;" d="M98 0v1434h1024v-1434h-1024zM147 49h926v1335h-926v-1335z" />
<glyph unicode="&#xc0;" d="M98 0v1434h1024v-1434h-1024zM147 49h926v1335h-926v-1335z" />
<glyph unicode="&#xc1;" d="M98 0v1434h1024v-1434h-1024zM147 49h926v1335h-926v-1335z" />
<glyph unicode="&#xc2;" d="M98 0v1434h1024v-1434h-1024zM147 49h926v1335h-926v-1335z" />
<glyph unicode="&#xc3;" d="M98 0v1434h1024v-1434h-1024zM147 49h926v1335h-926v-1335z" />
<glyph unicode="&#xc4;" d="M98 0v1434h1024v-1434h-1024zM147 49h926v1335h-926v-1335z" />
<glyph unicode="&#xc5;" d="M98 0v1434h1024v-1434h-1024zM147 49h926v1335h-926v-1335z" />
<glyph unicode="&#xc6;" d="M98 0v1434h1024v-1434h-1024zM147 49h926v1335h-926v-1335z" />
<glyph unicode="&#xc7;" d="M98 0v1434h1024v-1434h-1024zM147 49h926v1335h-926v-1335z" />
<glyph unicode="&#xc8;" d="M98 0v1434h1024v-1434h-1024zM147 49h926v1335h-926v-1335z" />
<glyph unicode="&#xc9;" d="M98 0v1434h1024v-1434h-1024zM147 49h926v1335h-926v-1335z" />
<glyph unicode="&#xca;" d="M98 0v1434h1024v-1434h-1024zM147 49h926v1335h-926v-1335z" />
<glyph unicode="&#xcb;" d="M98 0v1434h1024v-1434h-1024zM147 49h926v1335h-926v-1335z" />
<glyph unicode="&#xcc;" d="M98 0v1434h1024v-1434h-1024zM147 49h926v1335h-926v-1335z" />
<glyph unicode="&#xcd;" d="M98 0v1434h1024v-1434h-1024zM147 49h926v1335h-926v-1335z" />
<glyph unicode="&#xce;" d="M98 0v1434h1024v-1434h-1024zM147 49h926v1335h-926v-1335z" />
<glyph unicode="&#xcf;" d="M98 0v1434h1024v-1434h-1024zM147 49h926v1335h-926v-1335z" />
<glyph unicode="&#xd0;" d="M98 0v1434h1024v-1434h-1024zM147 49h926v1335h-926v-1335z" />
<glyph unicode="&#xd1;" d="M98 0v1434h1024v-1434h-1024zM147 49h926v1335h-926v-1335z" />
<glyph unicode="&#xd2;" d="M98 0v1434h1024v-1434h-1024zM147 49h926v1335h-926v-1335z" />
<glyph unicode="&#xd3;" d="M98 0v1434h1024v-1434h-1024zM147 49h926v1335h-926v-1335z" />
<glyph unicode="&#xd4;" d="M98 0v1434h1024v-1434h-1024zM147 49h926v1335h-926v-1335z" />
<glyph unicode="&#xd5;" d="M98 0v1434h1024v-1434h-1024zM147 49h926v1335h-926v-1335z" />
<glyph unicode="&#xd6;" d="M98 0v1434h1024v-1434h-1024zM147 49h926v1335h-926v-1335z" />
<glyph unicode="&#xd7;" d="M98 0v1434h1024v-1434h-1024zM147 49h926v1335h-926v-1335z" />
<glyph unicode="&#xd8;" d="M98 0v1434h1024v-1434h-1024zM147 49h926v1335h-926v-1335z" />
<glyph unicode="&#xd9;" d="M98 0v1434h1024v-1434h-1024zM147 49h926v1335h-926v-1335z" />
<glyph unicode="&#xda;" d="M98 0v1434h1024v-1434h-1024zM147 49h926v1335h-926v-1335z" />
<glyph unicode="&#xdb;" d="M98 0v1434h1024v-1434h-1024zM147 49h926v1335h-926v-1335z" />
<glyph unicode="&#xdc;" d="M98 0v1434h1024v-1434h-1024zM147 49h926v1335h-926v-1335z" />
<glyph unicode="&#xdd;" d="M98 0v1434h1024v-1434h-1024zM147 49h926v1335h-926v-1335z" />
<glyph unicode="&#xde;" d="M98 0v1434h1024v-1434h-1024zM147 49h926v1335h-926v-1335z" />
<glyph unicode="&#xdf;" d="M98 0v1434h1024v-1434h-1024zM147 49h926v1335h-926v-1335z" />
<glyph unicode="&#xe0;" d="M98 0v1434h1024v-1434h-1024zM147 49h926v1335h-926v-1335z" />
<glyph unicode="&#xe1;" d="M98 0v1434h1024v-1434h-1024zM147 49h926v1335h-926v-1335z" />
<glyph unicode="&#xe2;" d="M98 0v1434h1024v-1434h-1024zM147 49h926v1335h-926v-1335z" />
<glyph unicode="&#xe3;" d="M98 0v1434h1024v-1434h-1024zM147 49h926v1335h-926v-1335z" />
<glyph unicode="&#xe4;" d="M98 0v1434h1024v-1434h-1024zM147 49h926v1335h-926v-1335z" />
<glyph unicode="&#xe5;" d="M98 0v1434h1024v-1434h-1024zM147 49h926v1335h-926v-1335z" />
<glyph unicode="&#xe6;" d="M98 0v1434h1024v-1434h-1024zM147 49h926v1335h-926v-1335z" />
<glyph unicode="&#xe7;" d="M98 0v1434h1024v-1434h-1024zM147 49h926v1335h-926v-1335z" />
<glyph unicode="&#xe8;" d="M98 0v1434h1024v-1434h-1024zM147 49h926v1335h-926v-1335z" />
<glyph unicode="&#xe9;" d="M98 0v1434h1024v-1434h-1024zM147 49h926v1335h-926v-1335z" />
<glyph unicode="&#xea;" d="M98 0v1434h1024v-1434h-1024zM147 49h926v1335h-926v-1335z" />
<glyph unicode="&#xeb;" d="M98 0v1434h1024v-1434h-1024zM147 49h926v1335h-926v-1335z" />
<glyph unicode="&#xec;" d="M98 0v1434h1024v-1434h-1024zM147 49h926v1335h-926v-1335z" />
<glyph unicode="&#xed;" d="M98 0v1434h1024v-1434h-1024zM147 49h926v1335h-926v-1335z" />
<glyph unicode="&#xee;" d="M98 0v1434h1024v-1434h-1024zM147 49h926v1335h-926v-1335z" />
<glyph unicode="&#xef;" d="M98 0v1434h1024v-1434h-1024zM147 49h926v1335h-926v-1335z" />
<glyph unicode="&#xf0;" d="M98 0v1434h1024v-1434h-1024zM147 49h926v1335h-926v-1335z" />
<glyph unicode="&#xf1;" d="M98 0v1434h1024v-1434h-1024zM147 49h926v1335h-926v-1335z" />
<glyph unicode="&#xf2;" d="M98 0v1434h1024v-1434h-1024zM147 49h926v1335h-926v-1335z" />
<glyph unicode="&#xf3;" d="M98 0v1434h1024v-1434h-1024zM147 49h926v1335h-926v-1335z" />
<glyph unicode="&#xf4;" d="M98 0v1434h1024v-1434h-1024zM147 49h926v1335h-926v-1335z" />
<glyph unicode="&#xf5;" d="M98 0v1434h1024v-1434h-1024zM147 49h926v1335h-926v-1335z" />
<glyph unicode="&#xf6;" d="M98 0v1434h1024v-1434h-1024zM147 49h926v1335h-926v-1335z" />
<glyph unicode="&#xf7;" d="M98 0v1434h1024v-1434h-1024zM147 49h926v1335h-926v-1335z" />
<glyph unicode="&#xf8;" d="M98 0v1434h1024v-1434h-1024zM147 49h926v1335h-926v-1335z" />
<glyph unicode="&#xf9;" d="M98 0v1434h1024v-1434h-1024zM147 49h926v1335h-926v-1335z" />
<glyph unicode="&#xfa;" d="M98 0v1434h1024v-1434h-1024zM147 49h926v1335h-926v-1335z" />
<glyph unicode="&#xfb;" d="M98 0v1434h1024v-1434h-1024zM147 49h926v1335h-926v-1335z" />
<glyph unicode="&#xfc;" d="M98 0v1434h1024v-1434h-1024zM147 49h926v1335h-926v-1335z" />
<glyph unicode="&#xfd;" d="M98 0v1434h1024v-1434h-1024zM147 49h926v1335h-926v-1335z" />
<glyph unicode="&#xfe;" d="M98 0v1434h1024v-1434h-1024zM147 49h926v1335h-926v-1335z" />
<glyph unicode="&#xff;" d="M98 0v1434h1024v-1434h-1024zM147 49h926v1335h-926v-1335z" />
<glyph unicode="&#x152;" d="M98 0v1434h1024v-1434h-1024zM147 49h926v1335h-926v-1335z" />
<glyph unicode="&#x153;" d="M98 0v1434h1024v-1434h-1024zM147 49h926v1335h-926v-1335z" />
<glyph unicode="&#x178;" d="M98 0v1434h1024v-1434h-1024zM147 49h926v1335h-926v-1335z" />
<glyph unicode="&#x2c6;" d="M98 0v1434h1024v-1434h-1024zM147 49h926v1335h-926v-1335z" />
<glyph unicode="&#x2dc;" d="M98 0v1434h1024v-1434h-1024zM147 49h926v1335h-926v-1335z" />
<glyph unicode="&#x2000;" horiz-adv-x="737" />
<glyph unicode="&#x2001;" horiz-adv-x="1475" />
<glyph unicode="&#x2002;" horiz-adv-x="737" />
<glyph unicode="&#x2003;" horiz-adv-x="1475" />
<glyph unicode="&#x2004;" horiz-adv-x="491" />
<glyph unicode="&#x2005;" horiz-adv-x="368" />
<glyph unicode="&#x2006;" horiz-adv-x="245" />
<glyph unicode="&#x2007;" horiz-adv-x="245" />
<glyph unicode="&#x2008;" horiz-adv-x="184" />
<glyph unicode="&#x2009;" horiz-adv-x="295" />
<glyph unicode="&#x200a;" horiz-adv-x="81" />
<glyph unicode="&#x2010;" horiz-adv-x="632" d="M61 471v156h510v-156h-510z" />
<glyph unicode="&#x2011;" horiz-adv-x="632" d="M61 471v156h510v-156h-510z" />
<glyph unicode="&#x2012;" horiz-adv-x="632" d="M61 471v156h510v-156h-510z" />
<glyph unicode="&#x2013;" d="M98 0v1434h1024v-1434h-1024zM147 49h926v1335h-926v-1335z" />
<glyph unicode="&#x2014;" d="M98 0v1434h1024v-1434h-1024zM147 49h926v1335h-926v-1335z" />
<glyph unicode="&#x2018;" d="M98 0v1434h1024v-1434h-1024zM147 49h926v1335h-926v-1335z" />
<glyph unicode="&#x2019;" d="M98 0v1434h1024v-1434h-1024zM147 49h926v1335h-926v-1335z" />
<glyph unicode="&#x201a;" d="M98 0v1434h1024v-1434h-1024zM147 49h926v1335h-926v-1335z" />
<glyph unicode="&#x201c;" d="M98 0v1434h1024v-1434h-1024zM147 49h926v1335h-926v-1335z" />
<glyph unicode="&#x201d;" d="M98 0v1434h1024v-1434h-1024zM147 49h926v1335h-926v-1335z" />
<glyph unicode="&#x201e;" d="M98 0v1434h1024v-1434h-1024zM147 49h926v1335h-926v-1335z" />
<glyph unicode="&#x2022;" d="M98 0v1434h1024v-1434h-1024zM147 49h926v1335h-926v-1335z" />
<glyph unicode="&#x2026;" d="M98 0v1434h1024v-1434h-1024zM147 49h926v1335h-926v-1335z" />
<glyph unicode="&#x202f;" horiz-adv-x="295" />
<glyph unicode="&#x2039;" d="M98 0v1434h1024v-1434h-1024zM147 49h926v1335h-926v-1335z" />
<glyph unicode="&#x203a;" d="M98 0v1434h1024v-1434h-1024zM147 49h926v1335h-926v-1335z" />
<glyph unicode="&#x205f;" horiz-adv-x="368" />
<glyph unicode="&#x20ac;" d="M98 0v1434h1024v-1434h-1024zM147 49h926v1335h-926v-1335z" />
<glyph unicode="&#x2122;" d="M98 0v1434h1024v-1434h-1024zM147 49h926v1335h-926v-1335z" />
<glyph unicode="&#x25fc;" horiz-adv-x="993" d="M0 0v993h993v-993h-993z" />
</font>
</defs>
</svg>
