<?xml version="1.0" encoding="UTF-8" standalone="no"?>
<svg width="35px" height="38px" viewBox="0 0 35 38" version="1.1" xmlns="http://www.w3.org/2000/svg" xmlns:xlink="http://www.w3.org/1999/xlink" xmlns:sketch="http://www.bohemiancoding.com/sketch/ns">
    <!-- Generator: Sketch 3.1.1 (8761) - http://www.bohemiancoding.com/sketch -->
    <title>icon-cart</title>
    <desc>Created with Sketch.</desc>
    <defs></defs>
    <g id="Welcome" stroke="none" stroke-width="1" fill="none" fill-rule="evenodd" sketch:type="MSPage">
        <g id="Landing-Page" sketch:type="MSArtboardGroup" transform="translate(-290.000000, -1411.000000)" fill="#333333">
            <path d="M308.478186,1412.78559 L314.844761,1421.11859 L314.853515,1421.11026 C314.999946,1421.30108 315.214818,1421.43108 315.466297,1421.43108 C315.906387,1421.43108 316.262119,1421.05859 316.262119,1420.59778 C316.262119,1420.40112 316.187312,1420.22779 316.078284,1420.0853 L316.087834,1420.07697 L309.72126,1411.74396 L309.712506,1411.7523 C309.566075,1411.56147 309.351203,1411.43148 309.099723,1411.43148 C308.659634,1411.43148 308.303901,1411.80396 308.303901,1412.26478 C308.303901,1412.46144 308.378709,1412.63559 308.48694,1412.77726 L308.478186,1412.78559 L308.478186,1412.78559 Z M313.610441,1422.15272 L313.601687,1422.15938 L310.498778,1418.09788 L304.517381,1418.09788 L301.414472,1422.15938 L301.405718,1422.15272 C300.968812,1422.72436 300.304301,1423.09768 299.551453,1423.09768 L315.465502,1423.09768 C314.711858,1423.09768 314.047347,1422.72436 313.610441,1422.15272 L313.610441,1422.15272 Z M299.549862,1421.43108 C299.801341,1421.43108 300.016213,1421.30108 300.162644,1421.11026 L300.171398,1421.11859 L306.537973,1412.78559 L306.528423,1412.77726 C306.63745,1412.63559 306.712258,1412.46144 306.712258,1412.26478 C306.712258,1411.80396 306.356525,1411.43148 305.916436,1411.43148 C305.664956,1411.43148 305.450084,1411.56147 305.303653,1411.7523 L305.294899,1411.74396 L298.928325,1420.07697 L298.937079,1420.0853 C298.828847,1420.22779 298.75404,1420.40112 298.75404,1420.59778 C298.75404,1421.05859 299.109772,1421.43108 299.549862,1421.43108 L299.549862,1421.43108 Z M317.322154,1419.04367 C317.650032,1419.47116 317.853763,1420.00697 317.853763,1420.59778 C317.853763,1421.97772 316.78577,1423.09685 315.467889,1423.09768 L321.832872,1423.09768 L323.424515,1419.76448 L324.220337,1419.76448 C324.660427,1419.76448 325.016159,1419.39199 325.016159,1418.93118 C325.016159,1418.47036 324.660427,1418.09788 324.220337,1418.09788 L316.613077,1418.09788 L317.330908,1419.03617 L317.322154,1419.04367 L317.322154,1419.04367 Z M316.262119,1429.76408 C311.427502,1429.76408 307.508079,1433.86808 307.508079,1438.93038 C307.508079,1443.99268 311.427502,1448.09668 316.262119,1448.09668 C321.096737,1448.09668 325.016159,1443.99268 325.016159,1438.93038 C325.016159,1433.86808 321.096737,1429.76408 316.262119,1429.76408 L316.262119,1429.76408 Z M315.966869,1442.08526 L315.954136,1442.07276 C315.818051,1442.18525 315.653316,1442.26358 315.466297,1442.26358 C315.279279,1442.26358 315.114544,1442.18525 314.978459,1442.07276 L314.965725,1442.08526 L311.65829,1438.62123 L312.783582,1437.44294 L315.466297,1440.252 L320.138567,1435.35969 L321.263859,1436.53798 L315.966869,1442.08526 L315.966869,1442.08526 Z M297.162396,1420.59778 C297.162396,1420.00697 297.366127,1419.47199 297.694005,1419.04367 L297.685251,1419.03617 L298.403082,1418.09788 L290.795822,1418.09788 C290.355732,1418.09788 290,1418.47036 290,1418.93118 C290,1419.39199 290.355732,1419.76448 290.795822,1419.76448 L291.591644,1419.76448 L293.183287,1423.09768 L299.549066,1423.09768 C298.231185,1423.09685 297.162396,1421.97772 297.162396,1420.59778 L297.162396,1420.59778 Z M307.508079,1433.17561 C307.958515,1432.42564 308.491715,1431.7365 309.099723,1431.12486 L309.099723,1428.93078 C309.099723,1428.46996 309.455455,1428.09748 309.895545,1428.09748 C310.335634,1428.09748 310.691367,1428.46996 310.691367,1428.93078 L310.691367,1429.81241 C312.300518,1428.73245 314.208899,1428.09748 316.262119,1428.09748 C317.710515,1428.09748 319.088082,1428.41163 320.339114,1428.97411 C320.534091,1427.37584 320.712355,1425.85424 320.838095,1424.76428 L294.179656,1424.76428 C294.517085,1427.7 295.248445,1433.85475 295.60179,1435.75634 C296.103953,1438.4529 297.399551,1439.76368 299.562595,1439.76368 L305.957023,1439.76368 C305.936331,1439.48786 305.916436,1439.21204 305.916436,1438.93038 C305.916436,1437.45377 306.200544,1436.04633 306.712258,1434.76388 C306.272168,1434.76388 305.916436,1434.3914 305.916436,1433.93058 L305.916436,1428.93078 C305.916436,1428.46996 306.272168,1428.09748 306.712258,1428.09748 C307.152347,1428.09748 307.508079,1428.46996 307.508079,1428.93078 L307.508079,1433.17561 L307.508079,1433.17561 Z M301.141505,1433.93058 C301.141505,1434.3914 300.785773,1434.76388 300.345683,1434.76388 C299.905594,1434.76388 299.549862,1434.3914 299.549862,1433.93058 L299.549862,1428.93078 C299.549862,1428.46996 299.905594,1428.09748 300.345683,1428.09748 C300.785773,1428.09748 301.141505,1428.46996 301.141505,1428.93078 L301.141505,1433.93058 L301.141505,1433.93058 Z M304.324792,1433.93058 C304.324792,1434.3914 303.96906,1434.76388 303.52897,1434.76388 C303.088881,1434.76388 302.733149,1434.3914 302.733149,1433.93058 L302.733149,1428.93078 C302.733149,1428.46996 303.088881,1428.09748 303.52897,1428.09748 C303.96906,1428.09748 304.324792,1428.46996 304.324792,1428.93078 L304.324792,1433.93058 L304.324792,1433.93058 Z" id="icon-cart" sketch:type="MSShapeGroup"></path>
        </g>
    </g>
</svg>