<?xml version="1.0" encoding="UTF-8" standalone="no"?>
<svg width="181px" height="68px" viewBox="0 0 181 68" version="1.1" xmlns="http://www.w3.org/2000/svg" xmlns:xlink="http://www.w3.org/1999/xlink" xmlns:sketch="http://www.bohemiancoding.com/sketch/ns">
    <!-- Generator: Sketch 3.2.2 (9983) - http://www.bohemiancoding.com/sketch -->
    <title>logo</title>
    <desc>Created with Sketch.</desc>
    <defs></defs>
    <g id="Welcome" stroke="none" stroke-width="1" fill="none" fill-rule="evenodd" sketch:type="MSPage">
        <g id="CocoaCast-List" sketch:type="MSArtboardGroup" transform="translate(-40.000000, -9.000000)">
            <g id="logo" sketch:type="MSLayerGroup" transform="translate(40.000000, 2.000000)">
                <text id="COCOA-2" sketch:type="MSTextLayer" font-family="Abadi MT Condensed Extra Bold" font-size="47" font-style="condensed" font-weight="bold" fill="#BF1238">
                    <tspan x="66.0243902" y="41.5">COCOA</tspan>
                </text>
                <text id="ACADEMY" sketch:type="MSTextLayer" font-family="Abadi MT Condensed Light" font-size="36" font-style="condensed" font-weight="normal" fill="#BF1238">
                    <tspan x="66.1463415" y="70.5">ACADEMY</tspan>
                </text>
                <g id="Group-2" transform="translate(0.000000, 7.000000)" sketch:type="MSShapeGroup">
                    <g id="Group">
                        <rect id="Rectangle-8" fill="#333333" x="17" y="10" width="29.1079498" height="44" rx="2"></rect>
                        <ellipse id="Oval-2" fill="#BF1238" cx="31.3035259" cy="59.3709612" rx="3.30352586" ry="3.37096119"></ellipse>
                        <path d="M53.336755,43.0971451 C53.336755,40.5850949 53.6554073,38.6749187 54.2927214,37.3665593 C54.9300355,36.0581998 56.1065978,34.9068608 57.8224434,33.9125076 C56.1556219,32.9704888 54.9913155,31.8060663 54.3294893,30.4192053 C53.6676631,29.0323443 53.336755,27.1090847 53.336755,24.6493689 L53.336755,12.0106798 C53.336755,9.13228896 52.8710325,7.2351962 51.9395734,6.31934458 C51.0081143,5.40349296 49.1207123,4.94557402 46.2773109,4.94557402 L46.2773109,0 L48.3363154,0 C52.0621518,0 54.7216727,0.876587688 56.314958,2.62978936 C57.9082433,4.38299103 58.7048739,7.35292245 58.7048739,11.5396727 L58.7048739,24.4923666 C58.7048739,28.6267825 60.1020416,31.0602946 62.8964189,31.7929759 L62.8964189,36.4245452 C60.1020416,37.2618952 58.7048739,39.5907401 58.7048739,43.4111498 L58.7048739,57.2273565 C58.7048739,61.0477662 57.8959874,63.7952798 56.27819,65.4699799 C54.6603927,67.14468 52.0131276,67.9820175 48.3363154,67.9820175 L46.2773109,67.9820175 L46.2773109,63.0364435 C49.1207123,62.9841091 51.0081143,62.5131068 51.9395734,61.6234223 C52.8710325,60.7337379 53.336755,58.9282289 53.336755,56.2068413 L53.336755,43.0971451 Z" id="}-3" fill="#BF1238"></path>
                        <path d="M9.58153846,43.0971451 C9.58153846,40.5850949 9.26288619,38.6749187 8.62557207,37.3665593 C7.98825796,36.0581998 6.81169572,34.9068608 5.09585003,33.9125076 C6.76267155,32.9704888 7.92697794,31.8060663 8.58880414,30.4192053 C9.25063033,29.0323443 9.58153846,27.1090847 9.58153846,24.6493689 L9.58153846,12.0106798 C9.58153846,9.13228896 10.047261,7.2351962 10.9787201,6.31934458 C11.9101792,5.40349296 13.7975811,4.94557402 16.6409825,4.94557402 L16.6409825,0 L14.581978,0 C10.8561417,0 8.19662077,0.876587688 6.60333549,2.62978936 C5.01005021,4.38299103 4.21341952,7.35292245 4.21341952,11.5396727 L4.21341952,24.4923666 C4.21341952,28.6267825 2.81625185,31.0602946 0.021874596,31.7929759 L0.021874596,36.4245452 C2.81625185,37.2618952 4.21341952,39.5907401 4.21341952,43.4111498 L4.21341952,57.2273565 C4.21341952,61.0477662 5.02230607,63.7952798 6.64010343,65.4699799 C8.25790078,67.14468 10.9051658,67.9820175 14.581978,67.9820175 L16.6409825,67.9820175 L16.6409825,63.0364435 C13.7975811,62.9841091 11.9101792,62.5131068 10.9787201,61.6234223 C10.047261,60.7337379 9.58153846,58.9282289 9.58153846,56.2068413 L9.58153846,43.0971451 Z" id="}-4" fill="#BF1238"></path>
                        <rect id="Rectangle-5" fill="#BF1238" x="23" y="6" width="16.6204986" height="2" rx="8"></rect>
                    </g>
                </g>
            </g>
        </g>
    </g>
</svg>