<?xml version="1.0" encoding="UTF-8" standalone="no"?>
<svg width="172px" height="69px" viewBox="0 0 172 69" version="1.1" xmlns="http://www.w3.org/2000/svg" xmlns:xlink="http://www.w3.org/1999/xlink">
    <!-- Generator: Sketch 3.7.1 (28215) - http://www.bohemiancoding.com/sketch -->
    <title>logo-new</title>
    <desc>Created with Sketch.</desc>
    <defs></defs>
    <g id="Welcome" stroke="none" stroke-width="1" fill="none" fill-rule="evenodd">
        <g id="Desktop" transform="translate(-683.000000, -1797.000000)">
            <g id="logo-new" transform="translate(683.000000, 1794.000000)">
                <text id="COCOA-2" font-family="AbadiMT-CondensedExtraBold, Abadi MT Condensed Extra Bold" font-size="44" font-style="condensed" font-weight="bold" fill="#BF1238">
                    <tspan x="65.0227969" y="38.4938272">COCOA</tspan>
                </text>
                <text id="ACADEMY" font-family="AbadiMT-CondensedLight, Abadi MT Condensed Light" font-size="33" font-style="condensed" font-weight="normal" fill="#BF1238">
                    <tspan x="66.1428981" y="66.0123457">ACADEMY</tspan>
                </text>
                <g id="Group-2" transform="translate(0.000000, 3.913580)">
                    <g id="Group">
                        <rect id="Rectangle-8" fill="#333333" x="16.7421091" y="9.87654321" width="28.6663808" height="43.4567901" rx="2"></rect>
                        <ellipse id="Oval-2" fill="#BF1238" cx="30.8286498" cy="58.6379864" rx="3.2534112" ry="3.32934438"></ellipse>
                        <path d="M52.5276337,42.5650815 C52.5276337,40.0840443 52.841452,38.1974506 53.469098,36.9052437 C54.096744,35.6130369 55.2554578,34.4759119 56.945274,33.4938347 C55.3037382,32.5634457 54.1570944,31.4133988 53.5053082,30.0436596 C52.8535219,28.6739203 52.5276337,26.7744047 52.5276337,24.3450557 L52.5276337,11.8623998 C52.5276337,9.01954465 52.0689762,7.14587279 51.1516474,6.24132798 C50.2343186,5.33678317 48.3755486,4.88451755 45.5752817,4.88451755 L45.5752817,0 L47.6030511,0 C51.2723663,0 53.8915421,0.865765618 55.4606572,2.59732283 C57.0297722,4.32888003 57.814318,7.26214563 57.814318,11.3972076 L57.814318,24.1899917 C57.814318,28.2733654 59.1902906,30.6768341 61.942277,31.40047 L61.942277,35.9748594 C59.1902906,36.8018718 57.814318,39.1019656 57.814318,42.8752096 L57.814318,56.520846 C57.814318,60.29409 57.0177023,63.0076838 55.424447,64.6617086 C53.8311917,66.3157334 51.2240858,67.1427334 47.6030511,67.1427334 L45.5752817,67.1427334 L45.5752817,62.2582158 C48.3755486,62.2065275 50.2343186,61.74134 51.1516474,60.8626394 C52.0689762,59.9839387 52.5276337,58.2007199 52.5276337,55.5129297 L52.5276337,42.5650815 Z" id="}-3" fill="#BF1238"></path>
                        <path d="M9.43618603,42.5650815 C9.43618603,40.0840443 9.12236773,38.1974506 8.4947217,36.9052437 C7.86707568,35.6130369 6.70836194,34.4759119 5.01854573,33.4938347 C6.66008148,32.5634457 7.80672528,31.4133988 8.45851154,30.0436596 C9.11029779,28.6739203 9.43618603,26.7744047 9.43618603,24.3450557 L9.43618603,11.8623998 C9.43618603,9.01954465 9.89484355,7.14587279 10.8121724,6.24132798 C11.7295012,5.33678317 13.5882711,4.88451755 16.388538,4.88451755 L16.388538,0 L14.3607687,0 C10.6914535,0 8.07227761,0.865765618 6.50316255,2.59732283 C4.93404749,4.32888003 4.14950173,7.26214563 4.14950173,11.3972076 L4.14950173,24.1899917 C4.14950173,28.2733654 2.77352917,30.6768341 0.0215427572,31.40047 L0.0215427572,35.9748594 C2.77352917,36.8018718 4.14950173,39.1019656 4.14950173,42.8752096 L4.14950173,56.520846 C4.14950173,60.29409 4.94611743,63.0076838 6.53937272,64.6617086 C8.13262801,66.3157334 10.7397339,67.1427334 14.3607687,67.1427334 L16.388538,67.1427334 L16.388538,62.2582158 C13.5882711,62.2065275 11.7295012,61.74134 10.8121724,60.8626394 C9.89484355,59.9839387 9.43618603,58.2007199 9.43618603,55.5129297 L9.43618603,42.5650815 Z" id="}-4" fill="#BF1238"></path>
                        <rect id="Rectangle-5" fill="#BF1238" x="22.6510888" y="5.92592593" width="16.3683648" height="1.97530864" rx="8"></rect>
                    </g>
                </g>
            </g>
        </g>
    </g>
</svg>