<?xml version="1.0" encoding="UTF-8" standalone="no"?>
<svg width="298px" height="114px" viewBox="0 0 298 114" version="1.1" xmlns="http://www.w3.org/2000/svg" xmlns:xlink="http://www.w3.org/1999/xlink">
    <!-- Generator: Sketch 3.7.2 (28276) - http://www.bohemiancoding.com/sketch -->
    <title>logo-new</title>
    <desc>Created with Sketch.</desc>
    <defs></defs>
    <g id="Welcome" stroke="none" stroke-width="1" fill="none" fill-rule="evenodd">
        <g id="Desktop" transform="translate(-363.000000, -35.000000)">
            <g id="logo-new" transform="translate(363.000000, 24.000000)">
                <text id="COCOA-2" font-family="AbadiMT-CondensedExtraBold, Abadi MT Condensed Extra Bold" font-size="77.4466888" font-style="condensed" font-weight="bold" fill="#BF1238">
                    <tspan x="108.913185" y="68.8271605">COCOA</tspan>
                </text>
                <text id="ACADEMY" font-family="AbadiMT-CondensedLight, Abadi MT Condensed Light" font-size="59.3208681" font-style="condensed" font-weight="normal" fill="#BF1238">
                    <tspan x="109.114354" y="117.345679">ACADEMY</tspan>
                </text>
                <g id="Group-2" transform="translate(0.000000, 11.580247)">
                    <g id="Group">
                        <rect id="Rectangle-8" fill="#333333" x="28.0430328" y="16.5432099" width="48.0161878" height="72.7901235" rx="2"></rect>
                        <ellipse id="Oval-2" fill="#BF1238" cx="51.6379884" cy="98.2186272" rx="5.44946376" ry="5.57665184"></ellipse>
                        <path d="M87.9837864,71.2965116 C87.9837864,67.1407743 88.5094321,63.9807298 89.5607392,61.8162833 C90.6120463,59.6518367 92.5528918,57.7471524 95.383334,56.102173 C92.6337616,54.5437716 90.7131332,52.6174431 89.6213912,50.3231298 C88.5296492,48.0288165 87.9837864,44.8471278 87.9837864,40.7779684 L87.9837864,19.8695196 C87.9837864,15.1077373 87.2155351,11.9693369 85.6790093,10.4542244 C84.1424836,8.93911182 81.0290439,8.1815669 76.3385969,8.1815669 L76.3385969,0 L79.7351105,0 C85.8812135,0 90.268333,1.45015741 92.8966008,4.35051573 C95.5248685,7.25087406 96.8389826,12.1640939 96.8389826,19.0903228 L96.8389826,40.5182361 C96.8389826,47.3578871 99.1437367,51.3836972 103.753314,52.5957872 L103.753314,60.2578896 C99.1437367,61.6431353 96.8389826,65.4957923 96.8389826,71.8159761 L96.8389826,94.672417 C96.8389826,100.992601 95.5046514,105.53787 92.8359487,108.308362 C90.1672461,111.078853 85.8003437,112.464078 79.7351105,112.464078 L76.3385969,112.464078 L76.3385969,104.282511 C81.0290439,104.195934 84.1424836,103.416745 85.6790093,101.944921 C87.2155351,100.473097 87.9837864,97.4862059 87.9837864,92.9841572 L87.9837864,71.2965116 Z" id="}-3" fill="#BF1238"></path>
                        <path d="M15.8056116,71.2965116 C15.8056116,67.1407743 15.2799659,63.9807298 14.2286589,61.8162833 C13.1773518,59.6518367 11.2365063,57.7471524 8.40606409,56.102173 C11.1556365,54.5437716 13.0762648,52.6174431 14.1680068,50.3231298 C15.2597488,48.0288165 15.8056116,44.8471278 15.8056116,40.7779684 L15.8056116,19.8695196 C15.8056116,15.1077373 16.573863,11.9693369 18.1103887,10.4542244 C19.6469144,8.93911182 22.7603541,8.1815669 27.4508011,8.1815669 L27.4508011,0 L24.0542875,0 C17.9081845,0 13.521065,1.45015741 10.8927973,4.35051573 C8.26452955,7.25087406 6.9504154,12.1640939 6.9504154,19.0903228 L6.9504154,40.5182361 C6.9504154,47.3578871 4.64566135,51.3836972 0.0360841184,52.5957872 L0.0360841184,60.2578896 C4.64566135,61.6431353 6.9504154,65.4957923 6.9504154,71.8159761 L6.9504154,94.672417 C6.9504154,100.992601 8.28474669,105.53787 10.9534493,108.308362 C13.6221519,111.078853 17.9890543,112.464078 24.0542875,112.464078 L27.4508011,112.464078 L27.4508011,104.282511 C22.7603541,104.195934 19.6469144,103.416745 18.1103887,101.944921 C16.573863,100.473097 15.8056116,97.4862059 15.8056116,92.9841572 L15.8056116,71.2965116 Z" id="}-4" fill="#BF1238"></path>
                        <rect id="Rectangle-5" fill="#BF1238" x="37.9405738" y="9.92592593" width="27.417011" height="3.30864198" rx="8"></rect>
                    </g>
                </g>
            </g>
        </g>
    </g>
</svg>