<?xml version="1.0" encoding="UTF-8" standalone="no"?>
<svg width="73px" height="80px" viewBox="0 0 73 80" version="1.1" xmlns="http://www.w3.org/2000/svg" xmlns:xlink="http://www.w3.org/1999/xlink">
    <!-- Generator: Sketch 3.7.1 (28215) - http://www.bohemiancoding.com/sketch -->
    <title>logo-new</title>
    <desc>Created with Sketch.</desc>
    <defs></defs>
    <g id="Welcome" stroke="none" stroke-width="1" fill="none" fill-rule="evenodd">
        <g id="Desktop" transform="translate(-641.000000, -1963.000000)">
            <g id="logo-new" transform="translate(641.000000, 1963.000000)">
                <g id="Group-2" transform="translate(0.000000, 0.407191)">
                    <g id="Group">
                        <rect id="Rectangle-8" fill="#333333" x="19.6793213" y="11.6092701" width="33.6955704" height="51.0807884" rx="2"></rect>
                        <ellipse id="Oval-2" fill="#BF1238" cx="36.2371848" cy="68.9253524" rx="3.8241851" ry="3.91343989"></ellipse>
                        <path d="M61.743008,50.0326397 C61.743008,47.1163328 62.1118822,44.8987577 62.8496415,43.3798479 C63.5874009,41.8609381 64.9493977,40.5243175 66.9356729,39.369946 C65.0061485,38.2763309 63.6583391,36.9245214 62.8922044,35.314477 C62.1260696,33.7044326 61.743008,31.4716686 61.743008,28.6161182 L61.743008,13.9435225 C61.743008,10.6019209 61.2038843,8.39953469 60.1256206,7.33629781 C59.0473569,6.27306092 56.862487,5.74145046 53.5709452,5.74145046 L53.5709452,0 L55.9544635,0 C60.2675182,0 63.3461986,1.01765432 65.190597,3.0529935 C67.0349954,5.08833267 67.9571808,8.53620627 67.9571808,13.3967177 L67.9571808,28.4338499 C67.9571808,33.233605 69.5745521,36.0587349 72.8093431,36.9093244 L72.8093431,42.2862383 C69.5745521,43.2583406 67.9571808,45.9619595 67.9571808,50.3971762 L67.9571808,66.4367839 C67.9571808,70.8720006 67.020808,74.0616634 65.1480342,76.005868 C63.2752604,77.9500725 60.2107675,78.9221603 55.9544635,78.9221603 L53.5709452,78.9221603 L53.5709452,73.1807098 C56.862487,73.1199534 59.0473569,72.5731541 60.1256206,71.5402954 C61.2038843,70.5074367 61.743008,68.4113726 61.743008,65.2520401 L61.743008,50.0326397 Z" id="}-3" fill="#BF1238"></path>
                        <path d="M11.0916573,50.0326397 C11.0916573,47.1163328 10.7227831,44.8987577 9.98502376,43.3798479 C9.2472644,41.8609381 7.88526755,40.5243175 5.89899234,39.369946 C7.82851683,38.2763309 9.17632621,36.9245214 9.94246093,35.314477 C10.7085956,33.7044326 11.0916573,31.4716686 11.0916573,28.6161182 L11.0916573,13.9435225 C11.0916573,10.6019209 11.630781,8.39953469 12.7090447,7.33629781 C13.7873084,6.27306092 15.9721783,5.74145046 19.2637201,5.74145046 L19.2637201,0 L16.8802018,0 C12.567147,0 9.48846666,1.01765432 7.64406826,3.0529935 C5.79966986,5.08833267 4.87748449,8.53620627 4.87748449,13.3967177 L4.87748449,28.4338499 C4.87748449,33.233605 3.26011323,36.0587349 0.0253221883,36.9093244 L0.0253221883,42.2862383 C3.26011323,43.2583406 4.87748449,45.9619595 4.87748449,50.3971762 L4.87748449,66.4367839 C4.87748449,70.8720006 5.81385733,74.0616634 7.68663109,76.005868 C9.55940485,77.9500725 12.6238978,78.9221603 16.8802018,78.9221603 L19.2637201,78.9221603 L19.2637201,73.1807098 C15.9721783,73.1199534 13.7873084,72.5731541 12.7090447,71.5402954 C11.630781,70.5074367 11.0916573,68.4113726 11.0916573,65.2520401 L11.0916573,50.0326397 Z" id="}-4" fill="#BF1238"></path>
                        <rect id="Rectangle-5" fill="#BF1238" x="26.624964" y="6.96556205" width="19.2400077" height="2.32185402" rx="8"></rect>
                    </g>
                </g>
            </g>
        </g>
    </g>
</svg>